<svg xmlns="http://www.w3.org/2000/svg" xmlns:xlink="http://www.w3.org/1999/xlink" display="block" class="plt-container" width="400.0" height="250.0">
  <style type="text/css">
  .plt-container {
   font-family: Lucida Grande, sans-serif;
   user-select: none;
   -webkit-user-select: none;
   -moz-user-select: none;
   -ms-user-select: none;
}
text {
   text-rendering: optimizeLegibility;
}
#pdCtCiq .plot-title {
   fill: #474747;
   font-family: Lucida Grande, sans-serif;
   font-size: 16.0px;
   font-weight: normal;
   font-style: normal;   
}
#pdCtCiq .plot-subtitle {
   fill: #474747;
   font-family: Lucida Grande, sans-serif;
   font-size: 15.0px;
   font-weight: normal;
   font-style: normal;   
}
#pdCtCiq .plot-caption {
   fill: #474747;
   font-family: Lucida Grande, sans-serif;
   font-size: 13.0px;
   font-weight: normal;
   font-style: normal;   
}
#pdCtCiq .legend-title {
   fill: #474747;
   font-family: Lucida Grande, sans-serif;
   font-size: 15.0px;
   font-weight: normal;
   font-style: normal;   
}
#pdCtCiq .legend-item {
   fill: #474747;
   font-family: Lucida Grande, sans-serif;
   font-size: 13.0px;
   font-weight: normal;
   font-style: normal;   
}
#pdCtCiq .axis-title-x {
   fill: #474747;
   font-family: Lucida Grande, sans-serif;
   font-size: 15.0px;
   font-weight: normal;
   font-style: normal;   
}
#pdCtCiq .axis-text-x {
   fill: #474747;
   font-family: Lucida Grande, sans-serif;
   font-size: 13.0px;
   font-weight: normal;
   font-style: normal;   
}
#dyPScKR .axis-tooltip-text-x {
   fill: #ffffff;
   font-family: Lucida Grande, sans-serif;
   font-size: 13.0px;
   font-weight: normal;
   font-style: normal;   
}
#pdCtCiq .axis-title-y {
   fill: #474747;
   font-family: Lucida Grande, sans-serif;
   font-size: 15.0px;
   font-weight: normal;
   font-style: normal;   
}
#pdCtCiq .axis-text-y {
   fill: #474747;
   font-family: Lucida Grande, sans-serif;
   font-size: 13.0px;
   font-weight: normal;
   font-style: normal;   
}
#dyPScKR .axis-tooltip-text-y {
   fill: #ffffff;
   font-family: Lucida Grande, sans-serif;
   font-size: 13.0px;
   font-weight: normal;
   font-style: normal;   
}
#pdCtCiq .facet-strip-text-x {
   fill: #474747;
   font-family: Lucida Grande, sans-serif;
   font-size: 13.0px;
   font-weight: normal;
   font-style: normal;   
}
#pdCtCiq .facet-strip-text-y {
   fill: #474747;
   font-family: Lucida Grande, sans-serif;
   font-size: 13.0px;
   font-weight: normal;
   font-style: normal;   
}
#dyPScKR .tooltip-text {
   fill: #474747;
   font-family: Lucida Grande, sans-serif;
   font-size: 13.0px;
   font-weight: normal;
   font-style: normal;   
}
#dyPScKR .tooltip-title {
   fill: #474747;
   font-family: Lucida Grande, sans-serif;
   font-size: 13.0px;
   font-weight: bold;
   font-style: normal;   
}
#dyPScKR .tooltip-label {
   fill: #474747;
   font-family: Lucida Grande, sans-serif;
   font-size: 13.0px;
   font-weight: bold;
   font-style: normal;   
}

  </style>
  <g id="pdCtCiq">
    <path fill-rule="evenodd" fill="rgb(255,255,255)" fill-opacity="1.0" d="M0.0 0.0 L0.0 250.0 L400.0 250.0 L400.0 0.0 Z">
    </path>
    <g transform="translate(29.5 49.5 ) ">
      <g>
        <g transform="translate(27.034701220281416 0.0 ) ">
          <g>
            <line x1="75.685538850179" y1="0.0" x2="75.685538850179" y2="148.0" stroke="rgb(233,233,233)" stroke-opacity="1.0" stroke-width="1.0" fill="none">
            </line>
            <line x1="187.48530350749797" y1="0.0" x2="187.48530350749797" y2="148.0" stroke="rgb(233,233,233)" stroke-opacity="1.0" stroke-width="1.0" fill="none">
            </line>
            <line x1="299.285068164817" y1="0.0" x2="299.285068164817" y2="148.0" stroke="rgb(233,233,233)" stroke-opacity="1.0" stroke-width="1.0" fill="none">
            </line>
          </g>
        </g>
        <g transform="translate(27.034701220281416 0.0 ) ">
          <g>
            <line x1="0.0" y1="146.8777016434447" x2="336.9652987797186" y2="146.8777016434447" stroke="rgb(233,233,233)" stroke-opacity="1.0" stroke-width="1.0" fill="none">
            </line>
            <line x1="0.0" y1="80.13940215955327" x2="336.9652987797186" y2="80.13940215955327" stroke="rgb(233,233,233)" stroke-opacity="1.0" stroke-width="1.0" fill="none">
            </line>
            <line x1="0.0" y1="13.401102675661832" x2="336.9652987797186" y2="13.401102675661832" stroke="rgb(233,233,233)" stroke-opacity="1.0" stroke-width="1.0" fill="none">
            </line>
          </g>
        </g>
      </g>
      <g clip-path="url(#cr7aR07)" clip-bounds-jfx="[rect (27.034701220281416, 0.0), (336.9652987797186, 148.0)]">
        <g transform="translate(27.034701220281416 0.0 ) ">
          <g>
            <g>
              <g>
                <path d="M15.316604489987185 17.83294287576399 L15.316604489987185 17.83294287576399 L17.55113050575335 70.4154233675644 L19.785656521519485 83.09085876340282 L22.02018253728565 70.40442523471488 L24.26083054213609 95.10772518832971 L26.495356557902227 68.72278285151145 L28.72988257366839 57.41753125128436 L30.964408589434527 66.79337161578972 L33.20505659428497 53.45991036671134 L35.43958261005113 60.45165812357246 L37.67410862581727 59.45883901992211 L39.90863464158343 93.35752849165945 L42.149282646433875 52.043755284388126 L44.38380866220001 83.34053771585255 L46.618334677966175 77.41838262493172 L48.85286069373231 92.19137726253594 L51.09350869858275 31.51950819960892 L53.32803471434892 72.07593775871482 L55.56256073011505 81.73209473146498 L57.79708674588122 84.9351311996148 L60.03773475073166 81.34919677300027 L62.272260766497794 63.697600887777185 L64.50678678226396 77.52653093128531 L66.7413127980301 88.57266180502955 L68.98196080288054 52.979716756794815 L71.2164868186467 62.96602138415737 L73.45101283441284 44.68468055873595 L75.685538850179 71.31543723908331 L77.92006486594514 141.27272727272725 L80.1545908817113 89.68808972303933 L82.38911689747744 37.37586846402964 L84.6236429132436 64.97764568312908 L86.86429091809404 39.88041681240671 L89.09881693386018 96.06894648172984 L91.33334294962634 54.83453149495338 L93.56786896539248 98.03060345755557 L95.80851697024292 88.0726056059809 L98.04304298600908 86.5081357559317 L100.27756900177522 65.94107186607756 L102.51209501754138 93.28713534969437 L104.75274302239183 69.84847118585732 L106.98726903815798 67.12649003042468 L109.22179505392413 82.30886024004332 L111.45632106969028 51.90162817870623 L113.6969690745407 43.4796643363418 L115.93149509030685 56.88596197650946 L118.16602110607302 59.895078892559965 L120.40054712183917 64.20229298409397 L122.6411951266896 81.66978706525305 L124.87572114245575 58.89292448083032 L127.1102471582219 73.52287112551595 L129.34477317398805 74.48060094817019 L131.5854211788385 82.00062464177944 L133.81994719460465 80.93870649711327 L136.0544732103708 75.92752461644147 L138.28899922613692 82.70640904016217 L140.5296472309874 66.59462934211042 L142.76417324675353 70.61727145280263 L144.99869926251966 103.2203514369761 L147.23322527828583 79.61923120959642 L149.47387328313627 48.21277295332709 L151.7083992989024 49.11652075883811 L153.94292531466857 80.0929176764856 L156.17745133043474 106.58879148244701 L158.41809933528515 78.75954382519242 L160.6526253510513 71.52646108439556 L162.88715136681748 62.51498684507612 L165.1216773825836 115.40483876561095 L167.36232538743405 80.8617486627562 L169.59685140320022 69.21924549002632 L171.83137741896635 59.47669923566066 L174.06590343473252 64.42800629878342 L176.30655143958296 65.51156723668332 L178.5410774553491 83.68637833780247 L180.77560347111523 49.47306153618197 L183.0101294868814 76.62475192733378 L185.25077749173184 73.28767100051734 L187.48530350749797 77.07241076468158 L189.71982952326414 65.30841031344806 L191.9543555390303 78.68370387401275 L194.19500354388072 59.572311819163176 L196.42952955964688 65.09796713652554 L198.66405557541304 81.89143587187739 L200.89858159117918 86.7796521606542 L203.13922959602962 75.084639935002 L205.3737556117958 93.00189086247988 L207.60828162756192 68.76343762110054 L209.8428076433281 56.98890278487252 L212.08345564817853 49.18719921315761 L214.31798166394466 60.939513572070226 L216.55250767971083 62.346111194068854 L218.78703369547696 47.30065382447428 L221.0276817003274 50.146959247459066 L223.26220771609354 56.76701206014806 L225.4967337318597 44.752822429459684 L227.73125974762587 55.633844266017604 L229.97190775247628 58.70572150613867 L232.20643376824245 47.8298037934603 L234.4409597840086 47.61099857321517 L236.67548579977475 68.20534178248282 L238.9161338046252 56.68502462882675 L241.15065982039135 59.71085742644168 L243.3851858361575 61.529435207702335 L245.61971185192363 56.7958651864508 L247.86035985677407 67.38959843682763 L250.09488587254023 60.6377923084472 L252.32941188830637 71.46173956186549 L254.56393790407253 48.11783362295351 L256.80458590892295 66.57072531853979 L259.0391119246891 63.053864764082675 L261.2736379404553 37.08103315659987 L263.50816395622144 66.4430127954724 L265.74881196107185 56.740619935794655 L267.983337976838 43.985625447987374 L270.2178639926042 55.74315981620764 L272.45239000837034 45.33234838209647 L274.69303801322076 76.12515310213598 L276.9275640289869 56.404520949490546 L279.1620900447531 67.00926089024323 L281.3966160605192 53.61923781508162 L283.63726406536966 52.87761063453755 L285.8717900811358 47.46055497818719 L288.10631609690193 43.968929055830785 L290.3408421126681 71.3808463625117 L292.5814901175185 65.35375094049525 L294.8160161332847 58.9308659757216 L297.05054214905084 38.04569369789286 L299.285068164817 43.152545607205525 L301.5257161696674 86.82337737632328 L303.7602421854336 35.544689043114715 L305.99476820119975 40.01862086276441 L308.22929421696585 24.126900807001533 L310.4699422218163 36.6282087979191 L312.7044682375825 24.611051417096718 L314.9389942533486 50.04779784132741 L317.17352026911476 107.77293833370658 L319.41416827396523 27.703330674363386 L321.64869428973134 73.78492540205384 " fill="none" stroke-width="1.6500000000000001" stroke="rgb(228,26,28)" stroke-opacity="1.0">
                </path>
              </g>
              <g>
                <path d="M17.55113050575335 71.78526488395961 L17.55113050575335 71.78526488395961 L19.785656521519485 86.27289791442811 L22.02018253728565 30.671633624561792 L24.26083054213609 110.09200229870883 L26.495356557902227 94.04491179475434 L28.72988257366839 84.13810601656947 L30.964408589434527 81.28569337571668 L33.20505659428497 73.65457716087437 L35.43958261005113 57.920729774004315 L37.67410862581727 92.7073148042134 L39.90863464158343 58.5232339684874 L42.149282646433875 122.37223230170332 L44.38380866220001 82.80084847457326 L46.618334677966175 68.37896486385148 L48.85286069373231 92.7793225599801 L51.09350869858275 88.15378230082258 L53.32803471434892 68.59996203069248 L55.56256073011505 73.77677863698013 L57.79708674588122 78.21608670506653 L60.03773475073166 68.1121292120977 L62.272260766497794 69.42493966990186 L66.7413127980301 64.42541251255041 L68.98196080288054 76.38892776561654 L71.2164868186467 59.78335182869186 L73.45101283441284 95.14031224862457 L75.685538850179 65.59063753207327 L77.92006486594514 66.94164274013139 L80.1545908817113 72.33205951914775 L82.38911689747744 70.27638524363964 L84.6236429132436 66.93512532807242 L86.86429091809404 57.67605526295699 L89.09881693386018 50.611706736273774 L91.33334294962634 84.71788413098236 L93.56786896539248 56.704650513214716 L95.80851697024292 43.793967577342855 L98.04304298600908 73.67304316170812 L100.27756900177522 69.33741834604069 L102.51209501754138 58.28461627293922 L104.75274302239183 58.48050837886366 L106.98726903815798 59.66461506876688 L109.22179505392413 88.87273431857813 L111.45632106969028 58.83805552130485 L113.6969690745407 57.35713656620456 L115.93149509030685 56.56470072748408 L118.16602110607302 51.08971518183991 L120.40054712183917 53.763028218632726 L122.6411951266896 44.815028799915424 L124.87572114245575 55.467331472054354 L127.1102471582219 60.93258882175756 L129.34477317398805 45.9447135568042 L131.5854211788385 63.633619686358955 L133.81994719460465 56.96321331900674 L136.0544732103708 74.43798446700727 L138.28899922613692 69.25532402106707 L140.5296472309874 80.94796859311971 L142.76417324675353 60.262847144459215 L144.99869926251966 69.55946991715251 L147.23322527828583 47.26591875577688 L149.47387328313627 58.406795402902546 L151.7083992989024 56.314054873775845 L153.94292531466857 42.10378538338233 L156.17745133043474 67.84613733244083 L158.41809933528515 52.28561237251411 L160.6526253510513 52.46936718473239 L162.88715136681748 40.58453007949227 L165.1216773825836 48.10773871840564 L167.36232538743405 35.60029688653454 L169.59685140320022 35.87686369046567 L171.83137741896635 53.6384041518603 L174.06590343473252 63.10216636202392 L176.30655143958296 40.60179346262467 L178.5410774553491 64.60235734039259 L180.77560347111523 48.90606266110041 L183.0101294868814 37.41776611298019 L185.25077749173184 57.18777158706433 L187.48530350749797 65.37746384597767 L189.71982952326414 81.74375941782054 L191.9543555390303 76.23128257133293 L194.19500354388072 57.38432348507912 L196.42952955964688 35.38650602126668 L198.66405557541304 46.451364756150625 L200.89858159117918 37.72553279354284 L203.13922959602962 57.48136846683637 L205.3737556117958 35.08320874654309 L207.60828162756192 84.89589094784307 L209.8428076433281 73.34914620958385 L212.08345564817853 45.11081903951499 L214.31798166394466 64.60189181095978 L216.55250767971083 40.8933797625548 L218.78703369547696 33.77804214773791 L221.0276817003274 59.281155264435 L223.26220771609354 61.603959852070645 L225.4967337318597 45.29148726352361 L227.73125974762587 55.348524481396 L229.97190775247628 59.27757349703191 L232.20643376824245 46.67824189442203 L234.4409597840086 54.81671044635462 L236.67548579977475 61.48942021454613 L238.9161338046252 51.96884697758898 L241.15065982039135 43.1972760702226 L243.3851858361575 45.61846277148541 L245.61971185192363 51.98332451056828 L247.86035985677407 49.97064476025099 L250.09488587254023 43.096363101400854 L252.32941188830637 52.58339700287115 L254.56393790407253 50.79964242306809 L256.80458590892295 39.420059928876015 L259.0391119246891 59.34252131859182 L261.2736379404553 53.98977136030423 L263.50816395622144 48.132391537933074 L265.74881196107185 30.14154107856875 L267.983337976838 41.92711373079757 L270.2178639926042 41.143892788571605 L272.45239000837034 43.790379121298486 L274.69303801322076 32.05538430223565 L276.9275640289869 33.0869661667048 L279.1620900447531 40.802255385975926 L281.3966160605192 42.31957282327241 L283.63726406536966 37.65737685044246 L285.8717900811358 25.898892039949942 L288.10631609690193 31.933589552764587 L290.3408421126681 25.58142165698837 L292.5814901175185 31.757902912578572 L294.8160161332847 26.49221353411869 L297.05054214905084 29.99087882577689 L299.285068164817 43.272205212738044 L301.5257161696674 39.663634832364764 L303.7602421854336 46.69387649504145 L305.99476820119975 44.30331011872255 L308.22929421696585 39.9366661771587 L310.4699422218163 46.218108094593305 L312.7044682375825 29.79711055218145 L314.9389942533486 20.707511221666252 L317.17352026911476 25.106152549076725 L319.41416827396523 41.31348650380812 L321.64869428973134 27.111269657146792 " fill="none" stroke-width="1.6500000000000001" stroke="rgb(55,126,184)" stroke-opacity="1.0">
                </path>
              </g>
            </g>
            <g>
              <line x1="113.6969690745407" y1="148.0" x2="113.6969690745407" y2="-2.842170943040401E-14" stroke="rgb(128,128,128)" stroke-opacity="0.5" fill="none" stroke-width="2.2" stroke-dasharray="8.8,8.8">
              </line>
            </g>
            <g>
              <g transform="rotate(0.0 113.6969690745407 6.727272727272691 ) ">
                <g transform="translate(113.6969690745407 10.327272727272693 ) ">
                  <text style="fill:#000000;font-size:12.0px;font-family:sans-serif;" fill-opacity="1.0" y="0.0" text-anchor="middle">
                    <tspan>WW1</tspan>
                  </text>
                </g>
              </g>
            </g>
            <g>
              <line x1="167.36232538743405" y1="148.0" x2="167.36232538743405" y2="-2.842170943040401E-14" stroke="rgb(128,128,128)" stroke-opacity="0.5" fill="none" stroke-width="2.2" stroke-dasharray="8.8,8.8">
              </line>
            </g>
            <g>
              <g transform="rotate(0.0 167.36232538743405 6.727272727272691 ) ">
                <g transform="translate(167.36232538743405 10.327272727272693 ) ">
                  <text style="fill:#000000;font-size:12.0px;font-family:sans-serif;" fill-opacity="1.0" y="0.0" text-anchor="middle">
                    <tspan>WW2</tspan>
                  </text>
                </g>
              </g>
            </g>
            <g>
              <line x1="218.78703369547696" y1="148.0" x2="218.78703369547696" y2="-2.842170943040401E-14" stroke="rgb(128,128,128)" stroke-opacity="0.5" fill="none" stroke-width="2.2" stroke-dasharray="8.8,8.8">
              </line>
            </g>
            <g>
              <g transform="rotate(0.0 218.78703369547696 6.727272727272691 ) ">
                <g transform="translate(218.78703369547696 10.327272727272693 ) ">
                  <text style="fill:#000000;font-size:12.0px;font-family:sans-serif;" fill-opacity="1.0" y="0.0" text-anchor="middle">
                    <tspan>Viet.</tspan>
                  </text>
                </g>
              </g>
            </g>
            <g>
              <line x1="247.86035985677407" y1="148.0" x2="247.86035985677407" y2="-2.842170943040401E-14" stroke="rgb(128,128,128)" stroke-opacity="0.5" fill="none" stroke-width="2.2" stroke-dasharray="8.8,8.8">
              </line>
            </g>
            <g>
              <g transform="rotate(0.0 247.86035985677407 6.727272727272691 ) ">
                <g transform="translate(247.86035985677407 10.327272727272693 ) ">
                  <text style="fill:#000000;font-size:12.0px;font-family:sans-serif;" fill-opacity="1.0" y="0.0" text-anchor="middle">
                    <tspan>TV</tspan>
                  </text>
                </g>
              </g>
            </g>
          </g>
        </g>
        <defs>
          <clipPath id="cMO733V">
            <rect x="27.034701220281416" y="0.0" width="336.9652987797186" height="148.0">
            </rect>
          </clipPath>
        </defs>
        <defs>
          <clipPath id="cQqGZIu">
            <rect x="27.034701220281416" y="0.0" width="336.9652987797186" height="148.0">
            </rect>
          </clipPath>
        </defs>
        <defs>
          <clipPath id="c64rJJC">
            <rect x="27.034701220281416" y="0.0" width="336.9652987797186" height="148.0">
            </rect>
          </clipPath>
        </defs>
        <defs>
          <clipPath id="c6wu3LS">
            <rect x="27.034701220281416" y="0.0" width="336.9652987797186" height="148.0">
            </rect>
          </clipPath>
        </defs>
        <defs>
          <clipPath id="cXJzhwV">
            <rect x="27.034701220281416" y="0.0" width="336.9652987797186" height="148.0">
            </rect>
          </clipPath>
        </defs>
        <defs>
          <clipPath id="cpG8iuZ">
            <rect x="27.034701220281416" y="0.0" width="336.9652987797186" height="148.0">
            </rect>
          </clipPath>
        </defs>
        <defs>
          <clipPath id="cWDjhHl">
            <rect x="27.034701220281416" y="0.0" width="336.9652987797186" height="148.0">
            </rect>
          </clipPath>
        </defs>
        <defs>
          <clipPath id="cTu60YK">
            <rect x="27.034701220281416" y="0.0" width="336.9652987797186" height="148.0">
            </rect>
          </clipPath>
        </defs>
        <defs>
          <clipPath id="cr7aR07">
            <rect x="27.034701220281416" y="0.0" width="336.9652987797186" height="148.0">
            </rect>
          </clipPath>
        </defs>
      </g>
      <g>
        <g transform="translate(27.034701220281416 148.0 ) ">
          <g transform="translate(75.685538850179 0.0 ) ">
            <line stroke-width="1.0" stroke="rgb(71,71,71)" stroke-opacity="1.0" x2="0.0" y2="4.0">
            </line>
            <g transform="translate(0.0 7.0 ) ">
              <text class="axis-text-x" text-anchor="middle" dy="0.7em">
                <tspan>1900</tspan>
              </text>
            </g>
          </g>
          <g transform="translate(187.48530350749797 0.0 ) ">
            <line stroke-width="1.0" stroke="rgb(71,71,71)" stroke-opacity="1.0" x2="0.0" y2="4.0">
            </line>
            <g transform="translate(0.0 7.0 ) ">
              <text class="axis-text-x" text-anchor="middle" dy="0.7em">
                <tspan>1950</tspan>
              </text>
            </g>
          </g>
          <g transform="translate(299.285068164817 0.0 ) ">
            <line stroke-width="1.0" stroke="rgb(71,71,71)" stroke-opacity="1.0" x2="0.0" y2="4.0">
            </line>
            <g transform="translate(0.0 7.0 ) ">
              <text class="axis-text-x" text-anchor="middle" dy="0.7em">
                <tspan>2000</tspan>
              </text>
            </g>
          </g>
          <line x1="0.0" y1="0.0" x2="336.9652987797186" y2="0.0" stroke-width="1.0" stroke="rgb(71,71,71)" stroke-opacity="1.0">
          </line>
        </g>
        <g transform="translate(27.034701220281416 0.0 ) ">
          <g transform="translate(0.0 146.8777016434447 ) ">
            <g transform="translate(-3.0 0.0 ) ">
              <text class="axis-text-y" text-anchor="end" dy="0.35em">
                <tspan>0.0</tspan>
              </text>
            </g>
          </g>
          <g transform="translate(0.0 80.13940215955327 ) ">
            <g transform="translate(-3.0 0.0 ) ">
              <text class="axis-text-y" text-anchor="end" dy="0.35em">
                <tspan>0.5</tspan>
              </text>
            </g>
          </g>
          <g transform="translate(0.0 13.401102675661832 ) ">
            <g transform="translate(-3.0 0.0 ) ">
              <text class="axis-text-y" text-anchor="end" dy="0.35em">
                <tspan>1.0</tspan>
              </text>
            </g>
          </g>
        </g>
      </g>
    </g>
    <g transform="translate(16.0 123.5 ) rotate(-90.0 ) ">
      <text class="axis-title-y" y="0.0" text-anchor="middle">
        <tspan>Mean emotional score</tspan>
      </text>
    </g>
    <g transform="translate(225.0173506101407 243.0 ) ">
      <text class="axis-title-x" y="0.0" text-anchor="middle">
        <tspan>Year</tspan>
      </text>
    </g>
    <g transform="translate(145.67448773325825 0.0 ) ">
      <rect x="5.0" y="5.0" height="33.0" width="148.68572575376493" stroke="rgb(71,71,71)" stroke-opacity="1.0" stroke-width="0.0" fill="rgb(255,255,255)" fill-opacity="1.0">
      </rect>
      <g transform="translate(10.0 10.0 ) ">
        <g transform="translate(0.0 16.0 ) ">
          <text class="legend-title" y="0.0">
            <tspan>chamber</tspan>
          </text>
        </g>
        <g transform="translate(65.00999661222119 0.0 ) ">
          <g transform="">
            <g>
              <rect x="0.0" y="0.0" height="23.0" width="23.0" stroke-width="0.0" fill="rgb(255,255,255)" fill-opacity="1.0">
              </rect>
              <g transform="translate(1.0 1.0 ) ">
                <g>
                  <line x1="0.0" y1="10.5" x2="21.0" y2="10.5" stroke="rgb(228,26,28)" stroke-opacity="1.0" fill="rgb(255,255,255)" fill-opacity="1.0" stroke-width="1.6500000000000001">
                  </line>
                </g>
              </g>
              <rect x="0.0" y="0.0" height="23.0" width="23.0" stroke="rgb(255,255,255)" stroke-opacity="1.0" stroke-width="1.0" fill-opacity="0.0">
              </rect>
            </g>
            <g transform="translate(26.9903027277341 16.05 ) ">
              <text class="legend-item" y="0.0">
                <tspan>S</tspan>
              </text>
            </g>
          </g>
          <g transform="translate(36.83786457077187 0.0 ) ">
            <g>
              <rect x="0.0" y="0.0" height="23.0" width="23.0" stroke-width="0.0" fill="rgb(255,255,255)" fill-opacity="1.0">
              </rect>
              <g transform="translate(1.0 1.0 ) ">
                <g>
                  <line x1="0.0" y1="10.5" x2="21.0" y2="10.5" stroke="rgb(55,126,184)" stroke-opacity="1.0" fill="rgb(255,255,255)" fill-opacity="1.0" stroke-width="1.6500000000000001">
                  </line>
                </g>
              </g>
              <rect x="0.0" y="0.0" height="23.0" width="23.0" stroke="rgb(255,255,255)" stroke-opacity="1.0" stroke-width="1.0" fill-opacity="0.0">
              </rect>
            </g>
            <g transform="translate(26.9903027277341 16.05 ) ">
              <text class="legend-item" y="0.0">
                <tspan>H</tspan>
              </text>
            </g>
          </g>
        </g>
      </g>
    </g>
    <path fill="rgb(0,0,0)" fill-opacity="0.0" stroke="rgb(71,71,71)" stroke-opacity="1.0" stroke-width="0.0" d="M0.0 0.0 L0.0 250.0 L400.0 250.0 L400.0 0.0 Z">
    </path>
  </g>
  <g id="dyPScKR">
  </g>
</svg>