<svg xmlns="http://www.w3.org/2000/svg" xmlns:xlink="http://www.w3.org/1999/xlink" display="block" class="plt-container" width="400.0" height="250.0">
  <style type="text/css">
  .plt-container {
   font-family: Lucida Grande, sans-serif;
   user-select: none;
   -webkit-user-select: none;
   -moz-user-select: none;
   -ms-user-select: none;
}
text {
   text-rendering: optimizeLegibility;
}
#pBb8kV6 .plot-title {
   fill: #474747;
   font-family: Lucida Grande, sans-serif;
   font-size: 16.0px;
   font-weight: normal;
   font-style: normal;   
}
#pBb8kV6 .plot-subtitle {
   fill: #474747;
   font-family: Lucida Grande, sans-serif;
   font-size: 15.0px;
   font-weight: normal;
   font-style: normal;   
}
#pBb8kV6 .plot-caption {
   fill: #474747;
   font-family: Lucida Grande, sans-serif;
   font-size: 13.0px;
   font-weight: normal;
   font-style: normal;   
}
#pBb8kV6 .legend-title {
   fill: #474747;
   font-family: Lucida Grande, sans-serif;
   font-size: 15.0px;
   font-weight: normal;
   font-style: normal;   
}
#pBb8kV6 .legend-item {
   fill: #474747;
   font-family: Lucida Grande, sans-serif;
   font-size: 13.0px;
   font-weight: normal;
   font-style: normal;   
}
#pBb8kV6 .axis-title-x {
   fill: #474747;
   font-family: Lucida Grande, sans-serif;
   font-size: 15.0px;
   font-weight: normal;
   font-style: normal;   
}
#pBb8kV6 .axis-text-x {
   fill: #474747;
   font-family: Lucida Grande, sans-serif;
   font-size: 13.0px;
   font-weight: normal;
   font-style: normal;   
}
#d0RDeQa .axis-tooltip-text-x {
   fill: #ffffff;
   font-family: Lucida Grande, sans-serif;
   font-size: 13.0px;
   font-weight: normal;
   font-style: normal;   
}
#pBb8kV6 .axis-title-y {
   fill: #474747;
   font-family: Lucida Grande, sans-serif;
   font-size: 15.0px;
   font-weight: normal;
   font-style: normal;   
}
#pBb8kV6 .axis-text-y {
   fill: #474747;
   font-family: Lucida Grande, sans-serif;
   font-size: 13.0px;
   font-weight: normal;
   font-style: normal;   
}
#d0RDeQa .axis-tooltip-text-y {
   fill: #ffffff;
   font-family: Lucida Grande, sans-serif;
   font-size: 13.0px;
   font-weight: normal;
   font-style: normal;   
}
#pBb8kV6 .facet-strip-text-x {
   fill: #474747;
   font-family: Lucida Grande, sans-serif;
   font-size: 13.0px;
   font-weight: normal;
   font-style: normal;   
}
#pBb8kV6 .facet-strip-text-y {
   fill: #474747;
   font-family: Lucida Grande, sans-serif;
   font-size: 13.0px;
   font-weight: normal;
   font-style: normal;   
}
#d0RDeQa .tooltip-text {
   fill: #474747;
   font-family: Lucida Grande, sans-serif;
   font-size: 13.0px;
   font-weight: normal;
   font-style: normal;   
}
#d0RDeQa .tooltip-title {
   fill: #474747;
   font-family: Lucida Grande, sans-serif;
   font-size: 13.0px;
   font-weight: bold;
   font-style: normal;   
}
#d0RDeQa .tooltip-label {
   fill: #474747;
   font-family: Lucida Grande, sans-serif;
   font-size: 13.0px;
   font-weight: bold;
   font-style: normal;   
}

  </style>
  <g id="pBb8kV6">
    <path fill-rule="evenodd" fill="rgb(255,255,255)" fill-opacity="1.0" d="M0.0 0.0 L0.0 250.0 L400.0 250.0 L400.0 0.0 Z">
    </path>
    <g transform="translate(29.5 49.5 ) ">
      <g>
        <g transform="translate(27.034701220281416 0.0 ) ">
          <g>
            <line x1="75.685538850179" y1="0.0" x2="75.685538850179" y2="148.0" stroke="rgb(233,233,233)" stroke-opacity="1.0" stroke-width="1.0" fill="none">
            </line>
            <line x1="187.48530350749797" y1="0.0" x2="187.48530350749797" y2="148.0" stroke="rgb(233,233,233)" stroke-opacity="1.0" stroke-width="1.0" fill="none">
            </line>
            <line x1="299.285068164817" y1="0.0" x2="299.285068164817" y2="148.0" stroke="rgb(233,233,233)" stroke-opacity="1.0" stroke-width="1.0" fill="none">
            </line>
          </g>
        </g>
        <g transform="translate(27.034701220281416 0.0 ) ">
          <g>
            <line x1="0.0" y1="147.38197177690313" x2="336.9652987797186" y2="147.38197177690313" stroke="rgb(233,233,233)" stroke-opacity="1.0" stroke-width="1.0" fill="none">
            </line>
            <line x1="0.0" y1="74.63933954113466" x2="336.9652987797186" y2="74.63933954113466" stroke="rgb(233,233,233)" stroke-opacity="1.0" stroke-width="1.0" fill="none">
            </line>
            <line x1="0.0" y1="1.896707305366192" x2="336.9652987797186" y2="1.896707305366192" stroke="rgb(233,233,233)" stroke-opacity="1.0" stroke-width="1.0" fill="none">
            </line>
          </g>
        </g>
      </g>
      <g clip-path="url(#c7Hlv0E)" clip-bounds-jfx="[rect (27.034701220281416, 0.0), (336.9652987797186, 148.0)]">
        <g transform="translate(27.034701220281416 0.0 ) ">
          <g>
            <g>
              <g>
                <path d="M15.316604489987185 6.727272727272691 L15.316604489987185 6.727272727272691 L17.55113050575335 64.04051070365746 L19.785656521519485 77.85633374017743 L22.02018253728565 64.02852308726118 L24.26083054213609 90.95433746120122 L26.495356557902227 62.19558616229541 L28.72988257366839 49.87322005695815 L30.964408589434527 60.09258903715077 L33.20505659428497 45.559538666191216 L35.43958261005113 53.18032222968863 L37.67410862581727 52.098180858212515 L39.90863464158343 89.04667850628778 L42.149282646433875 44.015974488816326 L44.38380866220001 78.12847588877153 L46.618334677966175 71.67351444753766 L48.85286069373231 87.77561060903193 L51.09350869858275 21.645195353748647 L53.32803471434892 65.85041878659881 L55.56256073011505 76.3753239896323 L57.79708674588122 79.86653227096731 L60.03773475073166 75.95797734472495 L62.272260766497794 56.718297014495505 L64.50678678226396 71.79139267543435 L66.7413127980301 83.83132539758725 L68.98196080288054 45.03614284342899 L71.2164868186467 55.920898531246976 L73.45101283441284 35.99481616588267 L75.685538850179 65.02149731208598 L77.92006486594514 141.27272727272725 L80.1545908817113 85.0471064925922 L82.38911689747744 28.028442518410813 L84.6236429132436 58.11350529090758 L86.86429091809404 30.758320876589053 L89.09881693386018 92.00203822049122 L91.33334294962634 47.057832149371194 L93.56786896539248 94.14018218083686 L95.80851697024292 83.2862799818977 L98.04304298600908 81.58105740616298 L100.27756900177522 59.1636093099566 L102.51209501754138 88.9699522115292 L104.75274302239183 63.42255078606712 L106.98726903815798 60.4556775562492 L109.22179505392413 77.00398012263605 L111.45632106969028 43.86106044606569 L113.6969690745407 34.681386657165405 L115.93149509030685 49.29382638702927 L118.16602110607302 52.57366849975084 L120.40054712183917 57.268395411346816 L122.6411951266896 76.30741060730499 L124.87572114245575 51.48135193820137 L127.1102471582219 67.42753031902977 L129.34477317398805 68.471425485813 L131.5854211788385 76.66801308511971 L133.81994719460465 75.51055594792393 L136.0544732103708 70.04852644715366 L138.28899922613692 77.43729572082263 L140.5296472309874 59.87596625479411 L142.76417324675353 64.2605187222244 L144.99869926251966 99.79684307245023 L147.23322527828583 74.07236968417008 L149.47387328313627 39.84032510959648 L151.7083992989024 40.82538158778917 L153.94292531466857 74.5886729271722 L156.17745133043474 103.46833601324755 L158.41809933528515 73.13533766919456 L160.6526253510513 65.25150661845485 L162.88715136681748 55.429285171965375 L165.1216773825836 113.07754826845539 L167.36232538743405 75.4266743464209 L169.59685140320022 62.736714710843515 L171.83137741896635 52.117647927573984 L174.06590343473252 57.51441577398931 L176.30655143958296 58.69546287018812 L178.5410774553491 78.50543121081661 L180.77560347111523 41.21399974024358 L183.0101294868814 70.80848212857187 L185.25077749173184 67.17116963368281 L187.48530350749797 71.29641607990281 L189.71982952326414 58.474028259667094 L191.9543555390303 73.05267452494151 L194.19500354388072 52.22186261468201 L196.42952955964688 58.24465186344804 L198.66405557541304 76.54900078491603 L200.89858159117918 81.87700168594603 L203.13922959602962 69.1298088461169 L205.3737556117958 88.65904475672161 L207.60828162756192 62.23989857324564 L209.8428076433281 49.40602860708454 L212.08345564817853 40.90241886397564 L214.31798166394466 53.71206921378513 L216.55250767971083 55.24521606217688 L218.78703369547696 38.84614415415626 L221.0276817003274 41.94852689713926 L223.26220771609354 49.164174746408094 L225.4967337318597 36.06908864630614 L227.73125974762587 47.92905774841289 L229.97190775247628 51.277306626187936 L232.20643376824245 39.42290085741644 L234.4409597840086 39.18441009887681 L236.67548579977475 61.631591789062725 L238.9161338046252 49.074811043546575 L241.15065982039135 52.372872937631186 L243.3851858361575 54.355065108504746 L245.61971185192363 49.19562374004029 L247.86035985677407 60.74245738422083 L250.09488587254023 53.38320259465981 L252.32941188830637 65.18096220920928 L254.56393790407253 39.73684424707102 L256.80458590892295 59.84991162635734 L259.0391119246891 56.01664503257632 L261.2736379404553 27.707081373396008 L263.50816395622144 59.710709022017156 L265.74881196107185 49.13540816693863 L267.983337976838 35.23286824052397 L270.2178639926042 48.04820823511422 L272.45239000837034 36.70075357588554 L274.69303801322076 70.2639352358906 L276.9275640289869 48.76907091914232 L279.1620900447531 60.327901507151736 L281.3966160605192 45.733200537582775 L283.63726406536966 44.92485040478701 L285.8717900811358 39.0204313461969 L288.10631609690193 35.214669701998076 L290.3408421126681 65.09279118452822 L292.5814901175185 58.523448106803414 L294.8160161332847 51.522706965684776 L297.05054214905084 28.75853080393732 L299.285068164817 34.32483760519659 L301.5257161696674 81.92466078585483 L303.7602421854336 26.032514959521265 L305.99476820119975 30.90895891331475 L308.22929421696585 13.587487486114696 L310.4699422218163 27.213517167450618 L312.7044682375825 14.115196313717917 L314.9389942533486 41.84044410578859 L317.17352026911476 104.75901856854864 L319.41416827396523 17.485682743866448 L321.64869428973134 67.71316117884226 " fill="none" stroke-width="1.6500000000000001" stroke="rgb(228,26,28)" stroke-opacity="1.0">
                </path>
              </g>
              <g>
                <path d="M17.55113050575335 65.53359456133765 L17.55113050575335 65.53359456133765 L19.785656521519485 81.32465561102042 L22.02018253728565 20.721038926754304 L24.26083054213609 107.28672482480559 L26.495356557902227 89.79590453105499 L28.72988257366839 78.99780007039772 L30.964408589434527 75.88876065340907 L33.20505659428497 67.57108572525676 L35.43958261005113 50.42169050590378 L37.67410862581727 88.33796618508205 L39.90863464158343 51.07840099116825 L42.149282646433875 120.67178650283189 L44.38380866220001 77.54023171258517 L46.618334677966175 61.82083544755136 L48.85286069373231 88.41645235773505 L51.09350869858275 83.37476000767973 L53.32803471434892 62.06171535844183 L55.56256073011505 67.70428146299317 L57.79708674588122 72.54298662442798 L60.03773475073166 61.52999304022268 L62.272260766497794 62.96091485072475 L66.7413127980301 57.51158862916385 L68.98196080288054 70.55144126297047 L71.2164868186467 52.45188953953472 L73.45101283441284 90.98985632459758 L75.685538850179 58.78164698729637 L77.92006486594514 60.25419986560428 L80.1545908817113 66.12958339179298 L82.38911689747744 63.88896355316628 L84.6236429132436 60.247096092925005 L86.86429091809404 50.155003039902695 L89.09881693386018 42.455086937217985 L91.33334294962634 79.62973984832483 L93.56786896539248 49.09620263580133 L95.80851697024292 35.02396723304851 L98.04304298600908 67.59121308118138 L100.27756900177522 62.865519380302885 L102.51209501754138 50.81831526218744 L104.75274302239183 51.031831451981745 L106.98726903815798 52.322470232676665 L109.22179505392413 84.15839493136218 L111.45632106969028 51.42154651051163 L113.6969690745407 49.80739176346354 L115.93149509030685 48.94366180282228 L118.16602110607302 42.97610100006209 L120.40054712183917 45.889927522319255 L122.6411951266896 36.136891619468145 L124.87572114245575 47.74756407794948 L127.1102471582219 53.7045214553134 L129.34477317398805 37.36821221720902 L131.5854211788385 56.648559531809255 L133.81994719460465 49.37802790310707 L136.0544732103708 68.42497487139234 L138.28899922613692 62.77603916674664 L140.5296472309874 75.52065133915713 L142.76417324675353 52.974524243795614 L144.99869926251966 63.10754855844611 L147.23322527828583 38.808284029647865 L149.47387328313627 50.95148664333648 L151.7083992989024 48.670465762486884 L153.94292531466857 33.18172218489006 L156.17745133043474 61.2400703177498 L158.41809933528515 44.27959105308628 L160.6526253510513 44.47987797723803 L162.88715136681748 31.525782032117803 L165.1216773825836 39.72584112091019 L167.36232538743405 26.093125747248777 L169.59685140320022 26.39457480217773 L171.83137741896635 45.75409123750141 L174.06590343473252 56.06929224418663 L176.30655143958296 31.544598572845644 L178.5410774553491 57.70445288607905 L180.77560347111523 40.59598892835426 L183.0101294868814 28.074109628491854 L185.25077749173184 49.62278930151156 L187.48530350749797 58.549294422578456 L189.71982952326414 76.38803812823441 L191.9543555390303 70.37961299524126 L194.19500354388072 49.8370246437828 L196.42952955964688 25.86010047678471 L198.66405557541304 37.92044597430022 L200.89858159117918 28.409565560568694 L203.13922959602962 49.942800599611544 L205.3737556117958 25.529516055486198 L207.60828162756192 79.8237616396275 L209.8428076433281 67.23817566409302 L212.08345564817853 36.45929361029674 L214.31798166394466 57.70394547374481 L216.55250767971083 31.862418402611084 L218.78703369547696 24.106925809143306 L221.0276817003274 51.9045111935728 L223.26220771609354 54.43629461000101 L225.4967337318597 36.65621625107994 L227.73125974762587 47.618068221816884 L229.97190775247628 51.90060718057019 L232.20643376824245 38.16773486777831 L234.4409597840086 47.038407770951295 L236.67548579977475 54.3114500335989 L238.9161338046252 43.93432680742448 L241.15065982039135 34.37359239286948 L243.3851858361575 37.01260919650569 L245.61971185192363 43.950106859738355 L247.86035985677407 41.75634969154669 L250.09488587254023 34.26360045367434 L252.32941188830637 44.604166866660236 L254.56393790407253 42.65993088221174 L256.80458590892295 30.256546457180008 L259.0391119246891 51.97139824858935 L261.2736379404553 46.13707036374832 L263.50816395622144 39.75271191321876 L265.74881196107185 20.143254844416376 L267.983337976838 32.98915568035153 L270.2178639926042 32.135469664970685 L272.45239000837034 35.0200559296388 L274.69303801322076 22.22928332960008 L276.9275640289869 23.353674882403737 L279.1620900447531 31.763095718867987 L281.3966160605192 33.4169236584429 L283.63726406536966 28.33527774170048 L285.8717900811358 15.518901795142511 L288.10631609690193 22.096530911010817 L290.3408421126681 15.172869134854324 L292.5814901175185 21.905038038782735 L294.8160161332847 16.165603427962992 L297.05054214905084 19.97903776170068 L299.285068164817 34.45526278453205 L301.5257161696674 30.522035385776718 L303.7602421854336 38.184776087165176 L305.99476820119975 35.579134467697 L308.22929421696585 30.819630902245876 L310.4699422218163 37.66620360253732 L312.7044682375825 19.767836481864137 L314.9389942533486 9.860461160895 L317.17352026911476 14.65484086327416 L319.41416827396523 32.32032144202152 L321.64869428973134 16.840354990993205 " fill="none" stroke-width="1.6500000000000001" stroke="rgb(55,126,184)" stroke-opacity="1.0">
                </path>
              </g>
            </g>
            <g>
              <line x1="113.6969690745407" y1="148.0" x2="113.6969690745407" y2="-2.842170943040401E-14" stroke="rgb(128,128,128)" stroke-opacity="0.5" fill="none" stroke-width="2.2" stroke-dasharray="8.8,8.8">
              </line>
            </g>
            <g>
              <g transform="rotate(0.0 113.6969690745407 38.268023423250426 ) ">
                <g transform="translate(113.6969690745407 41.86802342325043 ) ">
                  <text style="fill:#000000;font-size:12.0px;font-family:sans-serif;" fill-opacity="1.0" y="0.0" text-anchor="middle">
                    <tspan>WW1</tspan>
                  </text>
                </g>
              </g>
            </g>
            <g>
              <line x1="167.36232538743405" y1="148.0" x2="167.36232538743405" y2="-2.842170943040401E-14" stroke="rgb(128,128,128)" stroke-opacity="0.5" fill="none" stroke-width="2.2" stroke-dasharray="8.8,8.8">
              </line>
            </g>
            <g>
              <g transform="rotate(0.0 167.36232538743405 38.268023423250426 ) ">
                <g transform="translate(167.36232538743405 41.86802342325043 ) ">
                  <text style="fill:#000000;font-size:12.0px;font-family:sans-serif;" fill-opacity="1.0" y="0.0" text-anchor="middle">
                    <tspan>WW2</tspan>
                  </text>
                </g>
              </g>
            </g>
            <g>
              <line x1="218.78703369547696" y1="148.0" x2="218.78703369547696" y2="-2.842170943040401E-14" stroke="rgb(128,128,128)" stroke-opacity="0.5" fill="none" stroke-width="2.2" stroke-dasharray="8.8,8.8">
              </line>
            </g>
            <g>
              <g transform="rotate(0.0 218.78703369547696 38.268023423250426 ) ">
                <g transform="translate(218.78703369547696 41.86802342325043 ) ">
                  <text style="fill:#000000;font-size:12.0px;font-family:sans-serif;" fill-opacity="1.0" y="0.0" text-anchor="middle">
                    <tspan>Viet.</tspan>
                  </text>
                </g>
              </g>
            </g>
            <g>
              <line x1="247.86035985677407" y1="148.0" x2="247.86035985677407" y2="-2.842170943040401E-14" stroke="rgb(128,128,128)" stroke-opacity="0.5" fill="none" stroke-width="2.2" stroke-dasharray="8.8,8.8">
              </line>
            </g>
            <g>
              <g transform="rotate(0.0 247.86035985677407 38.268023423250426 ) ">
                <g transform="translate(247.86035985677407 41.86802342325043 ) ">
                  <text style="fill:#000000;font-size:12.0px;font-family:sans-serif;" fill-opacity="1.0" y="0.0" text-anchor="middle">
                    <tspan>TV</tspan>
                  </text>
                </g>
              </g>
            </g>
          </g>
        </g>
        <defs>
          <clipPath id="cdHEpiT">
            <rect x="27.034701220281416" y="0.0" width="336.9652987797186" height="148.0">
            </rect>
          </clipPath>
        </defs>
        <defs>
          <clipPath id="cL5z6ig">
            <rect x="27.034701220281416" y="0.0" width="336.9652987797186" height="148.0">
            </rect>
          </clipPath>
        </defs>
        <defs>
          <clipPath id="cMBbTGt">
            <rect x="27.034701220281416" y="0.0" width="336.9652987797186" height="148.0">
            </rect>
          </clipPath>
        </defs>
        <defs>
          <clipPath id="cPYl8oQ">
            <rect x="27.034701220281416" y="0.0" width="336.9652987797186" height="148.0">
            </rect>
          </clipPath>
        </defs>
        <defs>
          <clipPath id="cSbFcCJ">
            <rect x="27.034701220281416" y="0.0" width="336.9652987797186" height="148.0">
            </rect>
          </clipPath>
        </defs>
        <defs>
          <clipPath id="c2BsFet">
            <rect x="27.034701220281416" y="0.0" width="336.9652987797186" height="148.0">
            </rect>
          </clipPath>
        </defs>
        <defs>
          <clipPath id="clMPLT5">
            <rect x="27.034701220281416" y="0.0" width="336.9652987797186" height="148.0">
            </rect>
          </clipPath>
        </defs>
        <defs>
          <clipPath id="cpbeHzU">
            <rect x="27.034701220281416" y="0.0" width="336.9652987797186" height="148.0">
            </rect>
          </clipPath>
        </defs>
        <defs>
          <clipPath id="c7Hlv0E">
            <rect x="27.034701220281416" y="0.0" width="336.9652987797186" height="148.0">
            </rect>
          </clipPath>
        </defs>
      </g>
      <g>
        <g transform="translate(27.034701220281416 148.0 ) ">
          <g transform="translate(75.685538850179 0.0 ) ">
            <line stroke-width="1.0" stroke="rgb(71,71,71)" stroke-opacity="1.0" x2="0.0" y2="4.0">
            </line>
            <g transform="translate(0.0 7.0 ) ">
              <text class="axis-text-x" text-anchor="middle" dy="0.7em">
                <tspan>1900</tspan>
              </text>
            </g>
          </g>
          <g transform="translate(187.48530350749797 0.0 ) ">
            <line stroke-width="1.0" stroke="rgb(71,71,71)" stroke-opacity="1.0" x2="0.0" y2="4.0">
            </line>
            <g transform="translate(0.0 7.0 ) ">
              <text class="axis-text-x" text-anchor="middle" dy="0.7em">
                <tspan>1950</tspan>
              </text>
            </g>
          </g>
          <g transform="translate(299.285068164817 0.0 ) ">
            <line stroke-width="1.0" stroke="rgb(71,71,71)" stroke-opacity="1.0" x2="0.0" y2="4.0">
            </line>
            <g transform="translate(0.0 7.0 ) ">
              <text class="axis-text-x" text-anchor="middle" dy="0.7em">
                <tspan>2000</tspan>
              </text>
            </g>
          </g>
          <line x1="0.0" y1="0.0" x2="336.9652987797186" y2="0.0" stroke-width="1.0" stroke="rgb(71,71,71)" stroke-opacity="1.0">
          </line>
        </g>
        <g transform="translate(27.034701220281416 0.0 ) ">
          <g transform="translate(0.0 147.38197177690313 ) ">
            <g transform="translate(-3.0 0.0 ) ">
              <text class="axis-text-y" text-anchor="end" dy="0.35em">
                <tspan>0.0</tspan>
              </text>
            </g>
          </g>
          <g transform="translate(0.0 74.63933954113466 ) ">
            <g transform="translate(-3.0 0.0 ) ">
              <text class="axis-text-y" text-anchor="end" dy="0.35em">
                <tspan>0.5</tspan>
              </text>
            </g>
          </g>
          <g transform="translate(0.0 1.896707305366192 ) ">
            <g transform="translate(-3.0 0.0 ) ">
              <text class="axis-text-y" text-anchor="end" dy="0.35em">
                <tspan>1.0</tspan>
              </text>
            </g>
          </g>
        </g>
      </g>
    </g>
    <g transform="translate(16.0 123.5 ) rotate(-90.0 ) ">
      <text class="axis-title-y" y="0.0" text-anchor="middle">
        <tspan>Mean emotional score</tspan>
      </text>
    </g>
    <g transform="translate(225.0173506101407 243.0 ) ">
      <text class="axis-title-x" y="0.0" text-anchor="middle">
        <tspan>Year</tspan>
      </text>
    </g>
    <g transform="translate(145.67448773325825 0.0 ) ">
      <rect x="5.0" y="5.0" height="33.0" width="148.68572575376493" stroke="rgb(71,71,71)" stroke-opacity="1.0" stroke-width="0.0" fill="rgb(255,255,255)" fill-opacity="1.0">
      </rect>
      <g transform="translate(10.0 10.0 ) ">
        <g transform="translate(0.0 16.0 ) ">
          <text class="legend-title" y="0.0">
            <tspan>chamber</tspan>
          </text>
        </g>
        <g transform="translate(65.00999661222119 0.0 ) ">
          <g transform="">
            <g>
              <rect x="0.0" y="0.0" height="23.0" width="23.0" stroke-width="0.0" fill="rgb(255,255,255)" fill-opacity="1.0">
              </rect>
              <g transform="translate(1.0 1.0 ) ">
                <g>
                  <line x1="0.0" y1="10.5" x2="21.0" y2="10.5" stroke="rgb(228,26,28)" stroke-opacity="1.0" fill="rgb(255,255,255)" fill-opacity="1.0" stroke-width="1.6500000000000001">
                  </line>
                </g>
              </g>
              <rect x="0.0" y="0.0" height="23.0" width="23.0" stroke="rgb(255,255,255)" stroke-opacity="1.0" stroke-width="1.0" fill-opacity="0.0">
              </rect>
            </g>
            <g transform="translate(26.9903027277341 16.05 ) ">
              <text class="legend-item" y="0.0">
                <tspan>S</tspan>
              </text>
            </g>
          </g>
          <g transform="translate(36.83786457077187 0.0 ) ">
            <g>
              <rect x="0.0" y="0.0" height="23.0" width="23.0" stroke-width="0.0" fill="rgb(255,255,255)" fill-opacity="1.0">
              </rect>
              <g transform="translate(1.0 1.0 ) ">
                <g>
                  <line x1="0.0" y1="10.5" x2="21.0" y2="10.5" stroke="rgb(55,126,184)" stroke-opacity="1.0" fill="rgb(255,255,255)" fill-opacity="1.0" stroke-width="1.6500000000000001">
                  </line>
                </g>
              </g>
              <rect x="0.0" y="0.0" height="23.0" width="23.0" stroke="rgb(255,255,255)" stroke-opacity="1.0" stroke-width="1.0" fill-opacity="0.0">
              </rect>
            </g>
            <g transform="translate(26.9903027277341 16.05 ) ">
              <text class="legend-item" y="0.0">
                <tspan>H</tspan>
              </text>
            </g>
          </g>
        </g>
      </g>
    </g>
    <path fill="rgb(0,0,0)" fill-opacity="0.0" stroke="rgb(71,71,71)" stroke-opacity="1.0" stroke-width="0.0" d="M0.0 0.0 L0.0 250.0 L400.0 250.0 L400.0 0.0 Z">
    </path>
  </g>
  <g id="d0RDeQa">
  </g>
</svg>