<svg xmlns="http://www.w3.org/2000/svg" xmlns:xlink="http://www.w3.org/1999/xlink" display="block" class="plt-container" width="800.0" height="500.0">
  <style type="text/css">
  .plt-container {
   font-family: Lucida Grande, sans-serif;
   user-select: none;
   -webkit-user-select: none;
   -moz-user-select: none;
   -ms-user-select: none;
}
text {
   text-rendering: optimizeLegibility;
}
#pzWpyan .plot-title {
   fill: #474747;
   font-family: Lucida Grande, sans-serif;
   font-size: 16.0px;
   font-weight: normal;
   font-style: normal;   
}
#pzWpyan .plot-subtitle {
   fill: #474747;
   font-family: Lucida Grande, sans-serif;
   font-size: 15.0px;
   font-weight: normal;
   font-style: normal;   
}
#pzWpyan .plot-caption {
   fill: #474747;
   font-family: Lucida Grande, sans-serif;
   font-size: 13.0px;
   font-weight: normal;
   font-style: normal;   
}
#pzWpyan .legend-title {
   fill: #474747;
   font-family: Lucida Grande, sans-serif;
   font-size: 15.0px;
   font-weight: normal;
   font-style: normal;   
}
#pzWpyan .legend-item {
   fill: #474747;
   font-family: Lucida Grande, sans-serif;
   font-size: 13.0px;
   font-weight: normal;
   font-style: normal;   
}
#pzWpyan .axis-title-x {
   fill: #474747;
   font-family: Lucida Grande, sans-serif;
   font-size: 15.0px;
   font-weight: normal;
   font-style: normal;   
}
#pzWpyan .axis-text-x {
   fill: #474747;
   font-family: Lucida Grande, sans-serif;
   font-size: 13.0px;
   font-weight: normal;
   font-style: normal;   
}
#dVnBNwn .axis-tooltip-text-x {
   fill: #ffffff;
   font-family: Lucida Grande, sans-serif;
   font-size: 13.0px;
   font-weight: normal;
   font-style: normal;   
}
#pzWpyan .axis-title-y {
   fill: #474747;
   font-family: Lucida Grande, sans-serif;
   font-size: 15.0px;
   font-weight: normal;
   font-style: normal;   
}
#pzWpyan .axis-text-y {
   fill: #474747;
   font-family: Lucida Grande, sans-serif;
   font-size: 13.0px;
   font-weight: normal;
   font-style: normal;   
}
#dVnBNwn .axis-tooltip-text-y {
   fill: #ffffff;
   font-family: Lucida Grande, sans-serif;
   font-size: 13.0px;
   font-weight: normal;
   font-style: normal;   
}
#pzWpyan .facet-strip-text-x {
   fill: #474747;
   font-family: Lucida Grande, sans-serif;
   font-size: 13.0px;
   font-weight: normal;
   font-style: normal;   
}
#pzWpyan .facet-strip-text-y {
   fill: #474747;
   font-family: Lucida Grande, sans-serif;
   font-size: 13.0px;
   font-weight: normal;
   font-style: normal;   
}
#dVnBNwn .tooltip-text {
   fill: #474747;
   font-family: Lucida Grande, sans-serif;
   font-size: 13.0px;
   font-weight: normal;
   font-style: normal;   
}
#dVnBNwn .tooltip-title {
   fill: #474747;
   font-family: Lucida Grande, sans-serif;
   font-size: 13.0px;
   font-weight: bold;
   font-style: normal;   
}
#dVnBNwn .tooltip-label {
   fill: #474747;
   font-family: Lucida Grande, sans-serif;
   font-size: 13.0px;
   font-weight: bold;
   font-style: normal;   
}

  </style>
  <g id="pzWpyan">
    <path fill-rule="evenodd" fill="rgb(255,255,255)" fill-opacity="1.0" d="M0.0 0.0 L0.0 500.0 L800.0 500.0 L800.0 0.0 Z">
    </path>
    <g transform="translate(29.5 49.5 ) ">
      <g>
        <g transform="translate(35.796181731634725 0.0 ) ">
          <g>
            <line x1="66.91609090581278" y1="0.0" x2="66.91609090581278" y2="398.0" stroke="rgb(233,233,233)" stroke-opacity="1.0" stroke-width="1.0" fill="none">
            </line>
            <line x1="163.56134764615206" y1="0.0" x2="163.56134764615206" y2="398.0" stroke="rgb(233,233,233)" stroke-opacity="1.0" stroke-width="1.0" fill="none">
            </line>
            <line x1="260.19337437187943" y1="0.0" x2="260.19337437187943" y2="398.0" stroke="rgb(233,233,233)" stroke-opacity="1.0" stroke-width="1.0" fill="none">
            </line>
            <line x1="356.83863111221876" y1="0.0" x2="356.83863111221876" y2="398.0" stroke="rgb(233,233,233)" stroke-opacity="1.0" stroke-width="1.0" fill="none">
            </line>
            <line x1="453.48388785255804" y1="0.0" x2="453.48388785255804" y2="398.0" stroke="rgb(233,233,233)" stroke-opacity="1.0" stroke-width="1.0" fill="none">
            </line>
            <line x1="550.1291445928973" y1="0.0" x2="550.1291445928973" y2="398.0" stroke="rgb(233,233,233)" stroke-opacity="1.0" stroke-width="1.0" fill="none">
            </line>
            <line x1="646.7744013332367" y1="0.0" x2="646.7744013332367" y2="398.0" stroke="rgb(233,233,233)" stroke-opacity="1.0" stroke-width="1.0" fill="none">
            </line>
          </g>
        </g>
        <g transform="translate(35.796181731634725 0.0 ) ">
          <g>
            <line x1="0.0" y1="362.14008411517307" x2="728.2038182683652" y2="362.14008411517307" stroke="rgb(233,233,233)" stroke-opacity="1.0" stroke-width="1.0" fill="none">
            </line>
            <line x1="0.0" y1="319.13393723714006" x2="728.2038182683652" y2="319.13393723714006" stroke="rgb(233,233,233)" stroke-opacity="1.0" stroke-width="1.0" fill="none">
            </line>
            <line x1="0.0" y1="276.1277903591071" x2="728.2038182683652" y2="276.1277903591071" stroke="rgb(233,233,233)" stroke-opacity="1.0" stroke-width="1.0" fill="none">
            </line>
            <line x1="0.0" y1="233.1216434810741" x2="728.2038182683652" y2="233.1216434810741" stroke="rgb(233,233,233)" stroke-opacity="1.0" stroke-width="1.0" fill="none">
            </line>
            <line x1="0.0" y1="190.1154966030411" x2="728.2038182683652" y2="190.1154966030411" stroke="rgb(233,233,233)" stroke-opacity="1.0" stroke-width="1.0" fill="none">
            </line>
            <line x1="0.0" y1="147.1093497250081" x2="728.2038182683652" y2="147.1093497250081" stroke="rgb(233,233,233)" stroke-opacity="1.0" stroke-width="1.0" fill="none">
            </line>
            <line x1="0.0" y1="104.10320284697502" x2="728.2038182683652" y2="104.10320284697502" stroke="rgb(233,233,233)" stroke-opacity="1.0" stroke-width="1.0" fill="none">
            </line>
            <line x1="0.0" y1="61.09705596894196" x2="728.2038182683652" y2="61.09705596894196" stroke="rgb(233,233,233)" stroke-opacity="1.0" stroke-width="1.0" fill="none">
            </line>
            <line x1="0.0" y1="18.090909090908895" x2="728.2038182683652" y2="18.090909090908895" stroke="rgb(233,233,233)" stroke-opacity="1.0" stroke-width="1.0" fill="none">
            </line>
          </g>
        </g>
      </g>
      <g clip-path="url(#cHd2sWM)" clip-bounds-jfx="[rect (35.796181731634725, 0.0), (728.2038182683652, 398.0)]">
        <g transform="translate(35.796181731634725 0.0 ) ">
          <g>
            <g>
              <g>
                <path d="M33.100173557652965 233.1216434810741 L33.100173557652965 233.1216434810741 L37.929128891016944 316.8458230138832 L42.75808422438092 299.90137465814394 L47.5870395577449 301.38536868430106 L52.429224905720844 312.76265621817225 L57.25818023908482 318.37051451149455 L62.0871355724488 318.4710293854556 L66.91609090581278 339.13119320843833 L71.75827625378872 352.132364401417 L76.5872315871527 311.97979560147485 L81.41618692051668 322.0637963918479 L86.2451422538806 288.31669829780094 L91.08732760185654 334.31257731174 L95.91628293522052 295.8675659761808 L100.7452382685845 324.77408764737396 L105.57419360194848 310.3869243127944 L110.41637894992442 323.7476234922547 L115.2453342832884 278.20296217185745 L120.07428961665238 296.4301845705643 L124.90324495001636 329.87390072013653 L129.7454302979923 352.8586916258447 L134.57438563135628 287.02067068141343 L139.40334096472026 311.9662460908013 L144.23229629808424 301.69757608016255 L149.07448164606012 308.9179176722434 L153.9034369794241 268.7449824316657 L158.73239231278808 254.74484582198454 L163.56134764615206 258.34519003710517 L168.39030297951604 333.83224060051845 L173.21925831288002 283.8970373769025 L178.048213646244 253.45182200523516 L182.87716897960797 317.57007735066617 L187.71935432758391 310.96659777068874 L192.5483096609479 282.358670808508 L197.37726499431187 324.8828309072113 L202.20622032767585 276.178445420212 L207.0484056756518 301.14443788946613 L211.87736100901577 293.4750973997251 L216.70631634237975 286.6118759164385 L221.53527167574367 291.1521189357212 L226.37745702371961 285.62265395555596 L231.2064123570836 252.95156711359652 L236.03536769044757 277.45787737595344 L240.86432302381155 245.4718452009942 L245.7065083717875 246.4283512050211 L250.53546370515147 277.7506638262027 L255.36441903851545 237.57055522707753 L260.19337437187943 260.0004852798447 L265.0355597198553 267.14273330345316 L269.8645150532193 251.60765957625455 L274.6934703865833 283.1287910136706 L279.52242571994725 232.08866957687798 L284.3646110679232 245.0677953916388 L289.19356640128717 257.46474548750786 L294.02252173465115 239.82638798321733 L298.85147706801513 282.31327241291257 L303.69366241599107 252.29635864962387 L308.52261774935505 269.65783905887207 L313.351573082719 276.3726071345039 L318.180528416083 253.7316180232624 L323.02271376405895 222.24930297820066 L327.8516690974229 221.24719716421026 L332.6806244307869 228.75110009916017 L337.5095797641509 223.34751919061205 L342.3517651121268 216.01692597276553 L347.1807204454908 218.29193766106272 L352.0096757788548 199.96712496276672 L356.83863111221876 205.3285553626174 L361.68081646019465 209.63429396199774 L366.5097717935586 195.1884852358378 L371.3387271269226 189.35254908606385 L376.1676824602866 235.83211492296692 L381.0098678082625 216.38949380192355 L385.8388231416265 215.84018377118713 L390.6677784749905 174.76020568875003 L395.49673380835446 201.02750401985543 L400.33891915633035 220.9291791599823 L405.1678744896943 223.81645648018264 L409.9968298230583 178.5317975987412 L414.8257851564223 195.39695323718547 L419.6679705043982 203.64889946675777 L424.4969258377622 228.59468065180744 L429.3258811711262 248.95212699446046 L434.15483650449016 235.41530464790253 L438.9970218524661 200.62811028433805 L443.8259771858301 232.64852855392303 L448.65493251919406 249.04984602849373 L453.48388785255804 218.21852327581513 L458.326073200534 227.13470888088392 L463.15502853389796 185.99743515470033 L467.98398386726194 184.60430362962398 L472.8129392006259 184.17155760363818 L477.6551245486018 198.9122084644569 L482.4840798819658 190.46308485848448 L487.31303521532976 172.62061622006638 L492.14199054869374 163.31351608443515 L496.9841758966697 181.51426722743446 L501.81313123003366 190.74941187897804 L506.64208656339764 172.40285632662483 L511.4710418967616 197.66043465181883 L516.3132272447375 197.17013268398028 L521.1421825781015 221.3135973729436 L525.9711379114655 227.96090585571017 L530.8000932448294 227.2218832595389 L535.6422785928054 189.6463386370989 L540.4712339261694 198.6836655198049 L545.3001892595333 196.9535304693249 L550.1291445928973 191.57829071453887 L554.9713299408733 175.8861060463537 L559.8002852742372 145.1012806100805 L564.6292406076012 157.99042303149838 L569.4581959409652 142.83785883870235 L574.3003812889411 123.86961103027079 L579.1293366223051 121.59659650334766 L583.9582919556691 150.01797801627606 L588.7872472890331 159.35984692998443 L593.629432637009 83.1212787115386 L598.458387970373 133.13148702289607 L603.287343303737 119.8683608013896 L608.116298637101 83.76632844318601 L612.9584839850769 92.27181746131544 L617.7874393184409 122.2199655081937 L622.6163946518049 75.83573546166951 L627.4453499851688 83.21450293478767 L632.2875353331447 79.55782739108145 L637.1164906665088 62.920638168717346 L641.9454459998726 71.41853121967006 L646.7744013332367 79.55864622123318 L651.6165866812125 79.39353073722816 L656.4455420145765 67.51964305760885 L661.2744973479405 85.8403185563036 L666.1034526813045 80.146758612903 L670.9456380292804 61.8515497738199 L675.7745933626444 71.90350349907101 L680.6035486960084 63.36053738357543 L685.4325040293724 68.19733936155365 L690.2746893773483 51.90445547901538 L695.1036447107123 62.561985546296 " fill="none" stroke-width="1.6500000000000001" stroke="rgb(228,26,28)" stroke-opacity="1.0">
                </path>
              </g>
              <g>
                <path d="M33.100173557652965 165.21720104207463 L33.100173557652965 165.21720104207463 L37.929128891016944 249.76092649936066 L42.75808422438092 302.041750657409 L47.5870395577449 288.6688638162166 L52.429224905720844 332.55782123375155 L57.25818023908482 340.4818658461493 L62.0871355724488 324.3468035253865 L66.91609090581278 318.3531902438929 L71.75827625378872 314.4316706081069 L76.5872315871527 321.25988476561133 L81.41618692051668 307.17196260881303 L86.2451422538806 360.3908859953092 L91.08732760185654 379.90909090909093 L95.91628293522052 339.1568241440591 L100.7452382685845 333.9636430571515 L105.57419360194848 340.0212296498388 L110.41637894992442 357.4251244906711 L115.2453342832884 357.86122633135534 L120.07428961665238 332.1990957823653 L124.90324495001636 336.7338125271602 L129.7454302979923 339.94336314586576 L134.57438563135628 310.0689160814763 L139.40334096472026 356.1703923389022 L144.23229629808424 349.7160861281858 L149.07448164606012 338.5667532847237 L153.9034369794241 350.1500565214644 L158.73239231278808 361.1552105225464 L163.56134764615206 316.403388229011 L168.39030297951604 333.2417737791403 L173.21925831288002 348.6076721650836 L178.048213646244 311.3146378047704 L182.87716897960797 351.49499825427387 L187.71935432758391 347.96760389400316 L192.5483096609479 334.4342010302865 L197.37726499431187 284.1914428987383 L202.20622032767585 324.77408764737396 L207.0484056756518 341.2038755295577 L211.87736100901577 365.0981788739796 L216.70631634237975 314.44736994914933 L221.53527167574367 335.2383667063609 L226.37745702371961 368.8030082793754 L231.2064123570836 296.6206522942772 L236.03536769044757 312.1834488528115 L240.86432302381155 303.9584184128126 L245.7065083717875 302.2386652493414 L250.53546370515147 278.72958572183506 L255.36441903851545 271.92659331136485 L260.19337437187943 313.05225990085256 L265.0355597198553 296.6241172625634 L269.8645150532193 309.01484385407355 L274.6934703865833 342.2910932483886 L279.52242571994725 291.8231605169178 L284.3646110679232 354.837153513243 L289.19356640128717 278.2007721902594 L294.02252173465115 286.6562661508247 L298.85147706801513 272.6216132658516 L303.69366241599107 323.61435829640055 L308.52261774935505 293.9596073573159 L313.351573082719 239.92103429183032 L318.180528416083 308.52396614318326 L323.02271376405895 316.55437453780166 L327.8516690974229 319.55046166210894 L332.6806244307869 315.26821616945176 L337.5095797641509 368.65616697548114 L342.3517651121268 331.9080402702192 L347.1807204454908 299.585688656216 L352.0096757788548 311.8066556780561 L356.83863111221876 287.92272515687984 L361.68081646019465 299.24425553217037 L366.5097717935586 332.507520717849 L371.3387271269226 330.54975654572553 L376.1676824602866 308.3209631649489 L381.0098678082625 293.7245329696435 L385.8388231416265 298.710168642553 L390.6677784749905 315.2500330976376 L395.49673380835446 336.31664574868483 L400.33891915633035 345.50195941801553 L405.1678744896943 321.5392525467349 L409.9968298230583 306.75499669656483 L414.8257851564223 308.07880308348797 L419.6679705043982 307.2212700062917 L424.4969258377622 291.2380581811187 L429.3258811711262 310.0200518060338 L434.15483650449016 314.15746363436534 L438.9970218524661 314.04230039745755 L443.8259771858301 310.0200518060338 L448.65493251919406 305.4917552487505 L453.48388785255804 258.7381341758933 L458.326073200534 290.0654697382426 L463.15502853389796 288.1201469745037 L467.98398386726194 257.7927055753825 L472.8129392006259 236.0639112264355 L477.6551245486018 251.96243163716474 L482.4840798819658 254.9131337024321 L487.31303521532976 260.99599793905844 L492.14199054869374 252.0254443065831 L496.9841758966697 261.01901557279746 L501.81313123003366 217.82785013895705 L506.64208656339764 259.4622752556055 L511.4710418967616 251.01681869206772 L516.3132272447375 265.1262179019359 L521.1421825781015 269.04815438655623 L525.9711379114655 249.7412767372753 L530.8000932448294 278.044498855064 L535.6422785928054 301.2678821542777 L540.4712339261694 261.0028517267295 L545.3001892595333 266.5028700358216 L550.1291445928973 250.2976775644667 L554.9713299408733 246.2374828178739 L559.8002852742372 260.74652767711433 L564.6292406076012 254.83484467356635 L569.4581959409652 275.6372259460497 L574.3003812889411 219.76569724566014 L579.1293366223051 244.28354419751014 L583.9582919556691 265.62078602280116 L588.7872472890331 218.26695079363225 L593.629432637009 220.4261019672636 L598.458387970373 235.42143743177104 L603.287343303737 206.95157438693633 L608.116298637101 217.3199807751434 L612.9584839850769 209.18644503908087 L617.7874393184409 226.01318945164718 L622.6163946518049 197.88249302917416 L627.4453499851688 191.20644024881227 L632.2875353331447 211.43787194593142 L637.1164906665088 204.4508788957188 L641.9454459998726 194.6156004295451 L646.7744013332367 206.03635896495507 L651.6165866812125 204.0028981990726 L656.4455420145765 200.13574211297356 L661.2744973479405 189.41047780176183 L666.1034526813045 178.71178694560774 L670.9456380292804 200.33103295823372 L675.7745933626444 192.54980680368448 L680.6035486960084 180.78612082526678 L685.4325040293724 169.50308301061108 L690.2746893773483 184.92509956603715 L695.1036447107123 178.84204062530432 " fill="none" stroke-width="1.6500000000000001" stroke="rgb(55,126,184)" stroke-opacity="1.0">
                </path>
              </g>
            </g>
            <g>
              <line x1="245.7065083717875" y1="398.0" x2="245.7065083717875" y2="0.0" stroke="rgb(128,128,128)" stroke-opacity="0.5" fill="none" stroke-width="2.2" stroke-dasharray="8.8,8.8">
              </line>
            </g>
            <g>
              <g transform="rotate(0.0 245.7065083717875 18.090909090909122 ) ">
                <g transform="translate(245.7065083717875 21.690909090909123 ) ">
                  <text style="fill:#000000;font-size:12.0px;font-family:sans-serif;" fill-opacity="1.0" y="0.0" text-anchor="middle">
                    <tspan>WW1</tspan>
                  </text>
                </g>
              </g>
            </g>
            <g>
              <line x1="361.68081646019465" y1="398.0" x2="361.68081646019465" y2="0.0" stroke="rgb(128,128,128)" stroke-opacity="0.5" fill="none" stroke-width="2.2" stroke-dasharray="8.8,8.8">
              </line>
            </g>
            <g>
              <g transform="rotate(0.0 361.68081646019465 18.090909090909122 ) ">
                <g transform="translate(361.68081646019465 21.690909090909123 ) ">
                  <text style="fill:#000000;font-size:12.0px;font-family:sans-serif;" fill-opacity="1.0" y="0.0" text-anchor="middle">
                    <tspan>WW2</tspan>
                  </text>
                </g>
              </g>
            </g>
            <g>
              <line x1="472.8129392006259" y1="398.0" x2="472.8129392006259" y2="0.0" stroke="rgb(128,128,128)" stroke-opacity="0.5" fill="none" stroke-width="2.2" stroke-dasharray="8.8,8.8">
              </line>
            </g>
            <g>
              <g transform="rotate(0.0 472.8129392006259 18.090909090909122 ) ">
                <g transform="translate(472.8129392006259 21.690909090909123 ) ">
                  <text style="fill:#000000;font-size:12.0px;font-family:sans-serif;" fill-opacity="1.0" y="0.0" text-anchor="middle">
                    <tspan>Viet.</tspan>
                  </text>
                </g>
              </g>
            </g>
            <g>
              <line x1="535.6422785928054" y1="398.0" x2="535.6422785928054" y2="0.0" stroke="rgb(128,128,128)" stroke-opacity="0.5" fill="none" stroke-width="2.2" stroke-dasharray="8.8,8.8">
              </line>
            </g>
            <g>
              <g transform="rotate(0.0 535.6422785928054 18.090909090909122 ) ">
                <g transform="translate(535.6422785928054 21.690909090909123 ) ">
                  <text style="fill:#000000;font-size:12.0px;font-family:sans-serif;" fill-opacity="1.0" y="0.0" text-anchor="middle">
                    <tspan>TV</tspan>
                  </text>
                </g>
              </g>
            </g>
          </g>
        </g>
        <defs>
          <clipPath id="cRC9oGD">
            <rect x="35.796181731634725" y="0.0" width="728.2038182683652" height="398.0">
            </rect>
          </clipPath>
        </defs>
        <defs>
          <clipPath id="c5jeLfi">
            <rect x="35.796181731634725" y="0.0" width="728.2038182683652" height="398.0">
            </rect>
          </clipPath>
        </defs>
        <defs>
          <clipPath id="cxCKiqF">
            <rect x="35.796181731634725" y="0.0" width="728.2038182683652" height="398.0">
            </rect>
          </clipPath>
        </defs>
        <defs>
          <clipPath id="c2Cz99D">
            <rect x="35.796181731634725" y="0.0" width="728.2038182683652" height="398.0">
            </rect>
          </clipPath>
        </defs>
        <defs>
          <clipPath id="cstZZIn">
            <rect x="35.796181731634725" y="0.0" width="728.2038182683652" height="398.0">
            </rect>
          </clipPath>
        </defs>
        <defs>
          <clipPath id="cCEFiju">
            <rect x="35.796181731634725" y="0.0" width="728.2038182683652" height="398.0">
            </rect>
          </clipPath>
        </defs>
        <defs>
          <clipPath id="c3P6tms">
            <rect x="35.796181731634725" y="0.0" width="728.2038182683652" height="398.0">
            </rect>
          </clipPath>
        </defs>
        <defs>
          <clipPath id="cUGfEaE">
            <rect x="35.796181731634725" y="0.0" width="728.2038182683652" height="398.0">
            </rect>
          </clipPath>
        </defs>
        <defs>
          <clipPath id="cHd2sWM">
            <rect x="35.796181731634725" y="0.0" width="728.2038182683652" height="398.0">
            </rect>
          </clipPath>
        </defs>
      </g>
      <g>
        <g transform="translate(35.796181731634725 398.0 ) ">
          <g transform="translate(66.91609090581278 0.0 ) ">
            <line stroke-width="1.0" stroke="rgb(71,71,71)" stroke-opacity="1.0" x2="0.0" y2="4.0">
            </line>
            <g transform="translate(0.0 7.0 ) ">
              <text class="axis-text-x" text-anchor="middle" dy="0.7em">
                <tspan>1879</tspan>
              </text>
            </g>
          </g>
          <g transform="translate(163.56134764615206 0.0 ) ">
            <line stroke-width="1.0" stroke="rgb(71,71,71)" stroke-opacity="1.0" x2="0.0" y2="4.0">
            </line>
            <g transform="translate(0.0 7.0 ) ">
              <text class="axis-text-x" text-anchor="middle" dy="0.7em">
                <tspan>1900</tspan>
              </text>
            </g>
          </g>
          <g transform="translate(260.19337437187943 0.0 ) ">
            <line stroke-width="1.0" stroke="rgb(71,71,71)" stroke-opacity="1.0" x2="0.0" y2="4.0">
            </line>
            <g transform="translate(0.0 7.0 ) ">
              <text class="axis-text-x" text-anchor="middle" dy="0.7em">
                <tspan>1919</tspan>
              </text>
            </g>
          </g>
          <g transform="translate(356.83863111221876 0.0 ) ">
            <line stroke-width="1.0" stroke="rgb(71,71,71)" stroke-opacity="1.0" x2="0.0" y2="4.0">
            </line>
            <g transform="translate(0.0 7.0 ) ">
              <text class="axis-text-x" text-anchor="middle" dy="0.7em">
                <tspan>1939</tspan>
              </text>
            </g>
          </g>
          <g transform="translate(453.48388785255804 0.0 ) ">
            <line stroke-width="1.0" stroke="rgb(71,71,71)" stroke-opacity="1.0" x2="0.0" y2="4.0">
            </line>
            <g transform="translate(0.0 7.0 ) ">
              <text class="axis-text-x" text-anchor="middle" dy="0.7em">
                <tspan>1959</tspan>
              </text>
            </g>
          </g>
          <g transform="translate(550.1291445928973 0.0 ) ">
            <line stroke-width="1.0" stroke="rgb(71,71,71)" stroke-opacity="1.0" x2="0.0" y2="4.0">
            </line>
            <g transform="translate(0.0 7.0 ) ">
              <text class="axis-text-x" text-anchor="middle" dy="0.7em">
                <tspan>1980</tspan>
              </text>
            </g>
          </g>
          <g transform="translate(646.7744013332367 0.0 ) ">
            <line stroke-width="1.0" stroke="rgb(71,71,71)" stroke-opacity="1.0" x2="0.0" y2="4.0">
            </line>
            <g transform="translate(0.0 7.0 ) ">
              <text class="axis-text-x" text-anchor="middle" dy="0.7em">
                <tspan>2000</tspan>
              </text>
            </g>
          </g>
          <line x1="0.0" y1="0.0" x2="728.2038182683652" y2="0.0" stroke-width="1.0" stroke="rgb(71,71,71)" stroke-opacity="1.0">
          </line>
        </g>
        <g transform="translate(35.796181731634725 0.0 ) ">
          <g transform="translate(0.0 362.14008411517307 ) ">
            <g transform="translate(-3.0 0.0 ) ">
              <text class="axis-text-y" text-anchor="end" dy="0.35em">
                <tspan>35%</tspan>
              </text>
            </g>
          </g>
          <g transform="translate(0.0 319.13393723714006 ) ">
            <g transform="translate(-3.0 0.0 ) ">
              <text class="axis-text-y" text-anchor="end" dy="0.35em">
                <tspan>40%</tspan>
              </text>
            </g>
          </g>
          <g transform="translate(0.0 276.1277903591071 ) ">
            <g transform="translate(-3.0 0.0 ) ">
              <text class="axis-text-y" text-anchor="end" dy="0.35em">
                <tspan>45%</tspan>
              </text>
            </g>
          </g>
          <g transform="translate(0.0 233.1216434810741 ) ">
            <g transform="translate(-3.0 0.0 ) ">
              <text class="axis-text-y" text-anchor="end" dy="0.35em">
                <tspan>50%</tspan>
              </text>
            </g>
          </g>
          <g transform="translate(0.0 190.1154966030411 ) ">
            <g transform="translate(-3.0 0.0 ) ">
              <text class="axis-text-y" text-anchor="end" dy="0.35em">
                <tspan>55%</tspan>
              </text>
            </g>
          </g>
          <g transform="translate(0.0 147.1093497250081 ) ">
            <g transform="translate(-3.0 0.0 ) ">
              <text class="axis-text-y" text-anchor="end" dy="0.35em">
                <tspan>60%</tspan>
              </text>
            </g>
          </g>
          <g transform="translate(0.0 104.10320284697502 ) ">
            <g transform="translate(-3.0 0.0 ) ">
              <text class="axis-text-y" text-anchor="end" dy="0.35em">
                <tspan>65%</tspan>
              </text>
            </g>
          </g>
          <g transform="translate(0.0 61.09705596894196 ) ">
            <g transform="translate(-3.0 0.0 ) ">
              <text class="axis-text-y" text-anchor="end" dy="0.35em">
                <tspan>70%</tspan>
              </text>
            </g>
          </g>
          <g transform="translate(0.0 18.090909090908895 ) ">
            <g transform="translate(-3.0 0.0 ) ">
              <text class="axis-text-y" text-anchor="end" dy="0.35em">
                <tspan>75%</tspan>
              </text>
            </g>
          </g>
        </g>
      </g>
    </g>
    <g transform="translate(16.0 248.5 ) rotate(-90.0 ) ">
      <text class="axis-title-y" y="0.0" text-anchor="middle">
        <tspan>% of emotional speeches</tspan>
      </text>
    </g>
    <g transform="translate(429.3980908658174 493.0 ) ">
      <text class="axis-title-x" y="0.0" text-anchor="middle">
        <tspan>Year</tspan>
      </text>
    </g>
    <g transform="translate(350.0552279889349 0.0 ) ">
      <rect x="5.0" y="5.0" height="33.0" width="148.68572575376493" stroke="rgb(71,71,71)" stroke-opacity="1.0" stroke-width="0.0" fill="rgb(255,255,255)" fill-opacity="1.0">
      </rect>
      <g transform="translate(10.0 10.0 ) ">
        <g transform="translate(0.0 16.0 ) ">
          <text class="legend-title" y="0.0">
            <tspan>chamber</tspan>
          </text>
        </g>
        <g transform="translate(65.00999661222119 0.0 ) ">
          <g transform="">
            <g>
              <rect x="0.0" y="0.0" height="23.0" width="23.0" stroke-width="0.0" fill="rgb(255,255,255)" fill-opacity="1.0">
              </rect>
              <g transform="translate(1.0 1.0 ) ">
                <g>
                  <line x1="0.0" y1="10.5" x2="21.0" y2="10.5" stroke="rgb(228,26,28)" stroke-opacity="1.0" fill="rgb(255,255,255)" fill-opacity="1.0" stroke-width="1.6500000000000001">
                  </line>
                </g>
              </g>
              <rect x="0.0" y="0.0" height="23.0" width="23.0" stroke="rgb(255,255,255)" stroke-opacity="1.0" stroke-width="1.0" fill-opacity="0.0">
              </rect>
            </g>
            <g transform="translate(26.9903027277341 16.05 ) ">
              <text class="legend-item" y="0.0">
                <tspan>H</tspan>
              </text>
            </g>
          </g>
          <g transform="translate(36.83786457077187 0.0 ) ">
            <g>
              <rect x="0.0" y="0.0" height="23.0" width="23.0" stroke-width="0.0" fill="rgb(255,255,255)" fill-opacity="1.0">
              </rect>
              <g transform="translate(1.0 1.0 ) ">
                <g>
                  <line x1="0.0" y1="10.5" x2="21.0" y2="10.5" stroke="rgb(55,126,184)" stroke-opacity="1.0" fill="rgb(255,255,255)" fill-opacity="1.0" stroke-width="1.6500000000000001">
                  </line>
                </g>
              </g>
              <rect x="0.0" y="0.0" height="23.0" width="23.0" stroke="rgb(255,255,255)" stroke-opacity="1.0" stroke-width="1.0" fill-opacity="0.0">
              </rect>
            </g>
            <g transform="translate(26.9903027277341 16.05 ) ">
              <text class="legend-item" y="0.0">
                <tspan>S</tspan>
              </text>
            </g>
          </g>
        </g>
      </g>
    </g>
    <path fill="rgb(0,0,0)" fill-opacity="0.0" stroke="rgb(71,71,71)" stroke-opacity="1.0" stroke-width="0.0" d="M0.0 0.0 L0.0 500.0 L800.0 500.0 L800.0 0.0 Z">
    </path>
  </g>
  <g id="dVnBNwn">
  </g>
</svg>