<svg xmlns="http://www.w3.org/2000/svg" xmlns:xlink="http://www.w3.org/1999/xlink" display="block" class="plt-container" width="400.0" height="250.0">
  <style type="text/css">
  .plt-container {
   font-family: Lucida Grande, sans-serif;
   user-select: none;
   -webkit-user-select: none;
   -moz-user-select: none;
   -ms-user-select: none;
}
text {
   text-rendering: optimizeLegibility;
}
#pG8n7EK .plot-title {
   fill: #474747;
   font-family: Lucida Grande, sans-serif;
   font-size: 16.0px;
   font-weight: normal;
   font-style: normal;   
}
#pG8n7EK .plot-subtitle {
   fill: #474747;
   font-family: Lucida Grande, sans-serif;
   font-size: 15.0px;
   font-weight: normal;
   font-style: normal;   
}
#pG8n7EK .plot-caption {
   fill: #474747;
   font-family: Lucida Grande, sans-serif;
   font-size: 13.0px;
   font-weight: normal;
   font-style: normal;   
}
#pG8n7EK .legend-title {
   fill: #474747;
   font-family: Lucida Grande, sans-serif;
   font-size: 15.0px;
   font-weight: normal;
   font-style: normal;   
}
#pG8n7EK .legend-item {
   fill: #474747;
   font-family: Lucida Grande, sans-serif;
   font-size: 13.0px;
   font-weight: normal;
   font-style: normal;   
}
#pG8n7EK .axis-title-x {
   fill: #474747;
   font-family: Lucida Grande, sans-serif;
   font-size: 15.0px;
   font-weight: normal;
   font-style: normal;   
}
#pG8n7EK .axis-text-x {
   fill: #474747;
   font-family: Lucida Grande, sans-serif;
   font-size: 13.0px;
   font-weight: normal;
   font-style: normal;   
}
#dqfNAkj .axis-tooltip-text-x {
   fill: #ffffff;
   font-family: Lucida Grande, sans-serif;
   font-size: 13.0px;
   font-weight: normal;
   font-style: normal;   
}
#pG8n7EK .axis-title-y {
   fill: #474747;
   font-family: Lucida Grande, sans-serif;
   font-size: 15.0px;
   font-weight: normal;
   font-style: normal;   
}
#pG8n7EK .axis-text-y {
   fill: #474747;
   font-family: Lucida Grande, sans-serif;
   font-size: 13.0px;
   font-weight: normal;
   font-style: normal;   
}
#dqfNAkj .axis-tooltip-text-y {
   fill: #ffffff;
   font-family: Lucida Grande, sans-serif;
   font-size: 13.0px;
   font-weight: normal;
   font-style: normal;   
}
#pG8n7EK .facet-strip-text-x {
   fill: #474747;
   font-family: Lucida Grande, sans-serif;
   font-size: 13.0px;
   font-weight: normal;
   font-style: normal;   
}
#pG8n7EK .facet-strip-text-y {
   fill: #474747;
   font-family: Lucida Grande, sans-serif;
   font-size: 13.0px;
   font-weight: normal;
   font-style: normal;   
}
#dqfNAkj .tooltip-text {
   fill: #474747;
   font-family: Lucida Grande, sans-serif;
   font-size: 13.0px;
   font-weight: normal;
   font-style: normal;   
}
#dqfNAkj .tooltip-title {
   fill: #474747;
   font-family: Lucida Grande, sans-serif;
   font-size: 13.0px;
   font-weight: bold;
   font-style: normal;   
}
#dqfNAkj .tooltip-label {
   fill: #474747;
   font-family: Lucida Grande, sans-serif;
   font-size: 13.0px;
   font-weight: bold;
   font-style: normal;   
}

  </style>
  <g id="pG8n7EK">
    <path fill-rule="evenodd" fill="rgb(255,255,255)" fill-opacity="1.0" d="M0.0 0.0 L0.0 250.0 L400.0 250.0 L400.0 0.0 Z">
    </path>
    <g transform="translate(29.5 49.5 ) ">
      <g>
        <g transform="translate(27.034701220281416 0.0 ) ">
          <g>
            <line x1="75.685538850179" y1="0.0" x2="75.685538850179" y2="148.0" stroke="rgb(233,233,233)" stroke-opacity="1.0" stroke-width="1.0" fill="none">
            </line>
            <line x1="187.48530350749797" y1="0.0" x2="187.48530350749797" y2="148.0" stroke="rgb(233,233,233)" stroke-opacity="1.0" stroke-width="1.0" fill="none">
            </line>
            <line x1="299.285068164817" y1="0.0" x2="299.285068164817" y2="148.0" stroke="rgb(233,233,233)" stroke-opacity="1.0" stroke-width="1.0" fill="none">
            </line>
          </g>
        </g>
        <g transform="translate(27.034701220281416 0.0 ) ">
          <g>
            <line x1="0.0" y1="129.01167649664757" x2="336.9652987797186" y2="129.01167649664757" stroke="rgb(233,233,233)" stroke-opacity="1.0" stroke-width="1.0" fill="none">
            </line>
            <line x1="0.0" y1="91.38570610607067" x2="336.9652987797186" y2="91.38570610607067" stroke="rgb(233,233,233)" stroke-opacity="1.0" stroke-width="1.0" fill="none">
            </line>
            <line x1="0.0" y1="53.759735715493804" x2="336.9652987797186" y2="53.759735715493804" stroke="rgb(233,233,233)" stroke-opacity="1.0" stroke-width="1.0" fill="none">
            </line>
            <line x1="0.0" y1="16.133765324916936" x2="336.9652987797186" y2="16.133765324916936" stroke="rgb(233,233,233)" stroke-opacity="1.0" stroke-width="1.0" fill="none">
            </line>
          </g>
        </g>
      </g>
      <g clip-path="url(#cTbv5OU)" clip-bounds-jfx="[rect (27.034701220281416, 0.0), (336.9652987797186, 148.0)]">
        <g transform="translate(27.034701220281416 0.0 ) ">
          <g>
            <g>
              <g>
                <path d="M15.316604489987185 141.27272727272725 L15.316604489987185 141.27272727272725 L17.55113050575335 97.4014259424922 L19.785656521519485 84.2287856288317 L22.02018253728565 98.48717168096553 L24.26083054213609 97.82847531703635 L26.495356557902227 96.76742195452829 L28.72988257366839 102.57159468751345 L30.964408589434527 111.37435815816599 L33.20505659428497 114.308909997915 L35.43958261005113 95.95505770749638 L37.67410862581727 102.32461243816812 L39.90863464158343 84.0125273629958 L42.149282646433875 95.89719407190859 L44.38380866220001 99.55379150094116 L46.618334677966175 110.71774288830973 L48.85286069373231 105.62604981943198 L51.09350869858275 108.27732117808958 L53.32803471434892 93.09585805031892 L55.56256073011505 89.80038406897904 L57.79708674588122 89.10928084231759 L60.03773475073166 105.43650844902284 L62.272260766497794 90.5871088514686 L64.50678678226396 91.92028987193869 L66.7413127980301 97.03276384076024 L68.98196080288054 84.32465682134124 L71.2164868186467 89.0529182284113 L73.45101283441284 91.83079291612137 L75.685538850179 72.88959428190853 L77.92006486594514 78.30002706104912 L80.1545908817113 91.51962360219007 L82.38911689747744 83.3185475438151 L84.6236429132436 91.39893836058513 L86.86429091809404 96.80252018365849 L89.09881693386018 93.5822849102729 L91.33334294962634 83.00743065264416 L93.56786896539248 102.2103881512472 L95.80851697024292 79.6356018375704 L98.04304298600908 101.1345881398095 L100.27756900177522 89.22538339714745 L102.51209501754138 92.05363612456055 L104.75274302239183 82.27220443441765 L106.98726903815798 83.96758138469932 L109.22179505392413 87.52161150249889 L111.45632106969028 74.92752623556544 L113.6969690745407 78.04051992640466 L115.93149509030685 78.96050708502314 L118.16602110607302 82.99612926581737 L120.40054712183917 76.5627295537173 L122.6411951266896 82.38918840490592 L124.87572114245575 82.91835322720655 L127.1102471582219 89.92609650449913 L129.34477317398805 61.76601250109945 L131.5854211788385 73.85991307410734 L133.81994719460465 89.5579126295189 L136.0544732103708 88.16361480304845 L138.28899922613692 86.86961202615485 L140.5296472309874 101.51960857100026 L142.76417324675353 88.9739342093421 L144.99869926251966 79.79435688559776 L147.23322527828583 74.97150447142766 L149.47387328313627 73.41450478454539 L151.7083992989024 82.18681326058243 L153.94292531466857 81.8894412734471 L156.17745133043474 79.96854623086581 L158.41809933528515 78.41087551577952 L160.6526253510513 74.25495186993294 L162.88715136681748 72.0820635975605 L165.1216773825836 77.46951968866813 L167.36232538743405 65.61842440725562 L169.59685140320022 72.63077606049595 L171.83137741896635 74.80454294597365 L174.06590343473252 77.15620727747192 L176.30655143958296 66.33054427437139 L178.5410774553491 60.25050923268958 L180.77560347111523 63.15567360805852 L183.0101294868814 85.27238579887037 L185.25077749173184 74.13469896720446 L187.48530350749797 68.5388325808726 L189.71982952326414 66.74041823315861 L191.9543555390303 55.382956061126976 L194.19500354388072 69.51134500402142 L196.42952955964688 66.99330544886604 L198.66405557541304 68.65321551464933 L200.89858159117918 72.20002152174817 L203.13922959602962 68.44635872804969 L205.3737556117958 67.80841171034908 L207.60828162756192 70.28100065232957 L209.8428076433281 75.66392645171948 L212.08345564817853 68.1303538607157 L214.31798166394466 60.48924818949058 L216.55250767971083 61.43411330863691 L218.78703369547696 62.219230851930945 L221.0276817003274 69.38978656134714 L223.26220771609354 71.42169500802711 L225.4967337318597 52.836604592479034 L227.73125974762587 55.49843387973161 L229.97190775247628 43.427590612551114 L232.20643376824245 64.48735387544065 L234.4409597840086 61.429270389277434 L236.67548579977475 69.30928591012312 L238.9161338046252 67.23070360951118 L241.15065982039135 69.89008152171732 L243.3851858361575 68.36556257307302 L245.61971185192363 67.82840029078304 L247.86035985677407 69.53490865177972 L250.09488587254023 63.61256752362286 L252.32941188830637 63.372489738544544 L254.56393790407253 56.80866462896054 L256.80458590892295 59.390040981047406 L259.0391119246891 61.544066539581365 L261.2736379404553 56.547834790767126 L263.50816395622144 60.41238452487906 L265.74881196107185 48.40464438075546 L267.983337976838 60.674352624350036 L270.2178639926042 50.97844218227365 L272.45239000837034 67.63233340892842 L274.69303801322076 50.66758310243861 L276.9275640289869 45.063345113824795 L279.1620900447531 41.054673757923894 L281.3966160605192 49.8976015270986 L283.63726406536966 42.89415772767447 L285.8717900811358 46.74057376123534 L288.10631609690193 40.52245328309854 L290.3408421126681 45.05658079142094 L292.5814901175185 37.340792176063076 L294.8160161332847 45.87147816234835 L297.05054214905084 41.39965232232154 L299.285068164817 46.50564778735827 L301.5257161696674 43.1651993461162 L303.7602421854336 45.11867277996731 L305.99476820119975 48.474116166053165 L308.22929421696585 41.18315117190832 L310.4699422218163 48.838303413299656 L312.7044682375825 38.75677347016929 L314.9389942533486 38.957535724163534 L317.17352026911476 37.93363825968299 L319.41416827396523 32.8878441344371 L321.64869428973134 38.59730467443356 " fill="none" stroke-width="1.6500000000000001" stroke="rgb(228,26,28)" stroke-opacity="1.0">
                </path>
              </g>
              <g>
                <path d="M15.316604489987185 96.34208249477207 L15.316604489987185 96.34208249477207 L17.55113050575335 78.80111016208085 L19.785656521519485 93.60316627373545 L22.02018253728565 88.18657174197234 L24.26083054213609 99.62570564772417 L26.495356557902227 92.27200455670665 L28.72988257366839 91.61736088219395 L30.964408589434527 85.18832424436543 L33.20505659428497 85.96780102639495 L35.43958261005113 107.74079233610252 L37.67410862581727 93.52644852277741 L39.90863464158343 115.33569035637753 L42.149282646433875 100.6098177742399 L44.38380866220001 115.12753628845081 L46.618334677966175 115.67041210741787 L48.85286069373231 111.9540006188335 L51.09350869858275 115.65971990871003 L53.32803471434892 108.94708106113747 L55.56256073011505 102.246248767467 L57.79708674588122 126.97441243400024 L60.03773475073166 106.65376082010452 L62.272260766497794 102.89506549268953 L64.50678678226396 103.72712950038338 L66.7413127980301 112.29051668215871 L68.98196080288054 103.4878506156129 L71.2164868186467 112.0162381719361 L73.45101283441284 119.88803700893412 L75.685538850179 110.35809590362848 L77.92006486594514 99.95712656805134 L80.1545908817113 95.81064175688522 L82.38911689747744 92.76185385657608 L84.6236429132436 112.41060157715108 L86.86429091809404 87.68290326346293 L89.09881693386018 106.65378098624242 L91.33334294962634 104.36805648623161 L93.56786896539248 100.11865053806743 L95.80851697024292 91.69175363274736 L98.04304298600908 103.13135331793649 L100.27756900177522 97.01143539131007 L102.51209501754138 101.03016345798585 L104.75274302239183 101.61049215687964 L106.98726903815798 96.19345672164556 L109.22179505392413 89.01646825949037 L111.45632106969028 85.64972399472825 L113.6969690745407 90.3225934110135 L115.93149509030685 83.30350950602777 L118.16602110607302 83.95030908624587 L120.40054712183917 88.21808438796796 L122.6411951266896 87.31345549114864 L124.87572114245575 90.6267328486911 L127.1102471582219 99.34576861701862 L129.34477317398805 93.57652592285702 L131.5854211788385 101.89276777883464 L133.81994719460465 94.7296264291796 L136.0544732103708 98.64221163418587 L138.28899922613692 88.39265924646641 L140.5296472309874 88.3637575889681 L142.76417324675353 95.39222859463801 L144.99869926251966 97.16242588721977 L147.23322527828583 94.4648300407448 L149.47387328313627 98.43451851713922 L151.7083992989024 103.29938611534939 L153.94292531466857 104.70017996651725 L156.17745133043474 101.50007629161708 L158.41809933528515 98.25207702820998 L160.6526253510513 100.71218942875407 L162.88715136681748 96.29248496621337 L165.1216773825836 94.11704411698143 L167.36232538743405 96.36945962059481 L169.59685140320022 95.23938835329587 L171.83137741896635 98.25100582860719 L174.06590343473252 98.79917618271688 L176.30655143958296 99.1432232980373 L178.5410774553491 86.78434542473778 L180.77560347111523 90.40750895715307 L183.0101294868814 112.02706416767556 L185.25077749173184 100.61013253671001 L187.48530350749797 97.1522199790259 L189.71982952326414 101.99582652657806 L191.9543555390303 97.29417525730571 L194.19500354388072 99.07379211086433 L196.42952955964688 96.63303472736011 L198.66405557541304 97.58364625095186 L200.89858159117918 93.09040879476079 L203.13922959602962 87.63535266993725 L205.3737556117958 87.95140778840312 L207.60828162756192 82.74645670108653 L209.8428076433281 84.64403736649263 L212.08345564817853 91.73796862317066 L214.31798166394466 84.86189744652727 L216.55250767971083 78.14720400216184 L218.78703369547696 78.01707478786095 L221.0276817003274 87.36238971664928 L223.26220771609354 76.52631642475365 L225.4967337318597 64.57276707367598 L227.73125974762587 70.51221751093985 L229.97190775247628 81.37604146553154 L232.20643376824245 72.4821544382587 L234.4409597840086 77.50027608122903 L236.67548579977475 71.23099796402545 L238.9161338046252 79.1108564906259 L241.15065982039135 70.70293175626873 L243.3851858361575 76.49533528879695 L245.61971185192363 79.47538701664466 L247.86035985677407 78.33078157270384 L250.09488587254023 81.41229161867582 L252.32941188830637 82.12327446788537 L254.56393790407253 86.30289147902543 L256.80458590892295 81.7149214377375 L259.0391119246891 78.02302594744057 L261.2736379404553 63.35754195420108 L263.50816395622144 78.73390207210662 L265.74881196107185 78.0035006214534 L267.983337976838 62.854922681854106 L270.2178639926042 65.21910671743524 L272.45239000837034 77.92983029220723 L274.69303801322076 67.29384464217028 L276.9275640289869 70.03228366810731 L279.1620900447531 68.40238232743991 L281.3966160605192 73.825609001066 L283.63726406536966 63.5662704756254 L285.8717900811358 80.72512873371467 L288.10631609690193 73.34110457371577 L290.3408421126681 65.90148556353361 L292.5814901175185 68.24340075161228 L294.8160161332847 60.22802137874862 L297.05054214905084 77.3484159710655 L299.285068164817 82.04658311495744 L301.5257161696674 75.15832331238411 L303.7602421854336 63.761988391122 L305.99476820119975 72.13916258403344 L308.22929421696585 78.54296166403957 L310.4699422218163 82.7619241211335 L312.7044682375825 76.91854432819471 L314.9389942533486 71.26320957022733 L317.17352026911476 61.092512550046195 L319.41416827396523 69.79088013745019 L321.64869428973134 98.78297416927819 " fill="none" stroke-width="1.6500000000000001" stroke="rgb(55,126,184)" stroke-opacity="1.0">
                </path>
              </g>
            </g>
            <g>
              <line x1="113.6969690745407" y1="148.0" x2="113.6969690745407" y2="0.0" stroke="rgb(128,128,128)" stroke-opacity="0.5" fill="none" stroke-width="2.2" stroke-dasharray="8.8,8.8">
              </line>
            </g>
            <g>
              <g transform="rotate(0.0 113.6969690745407 6.7272727272727195 ) ">
                <g transform="translate(113.6969690745407 10.327272727272721 ) ">
                  <text style="fill:#000000;font-size:12.0px;font-family:sans-serif;" fill-opacity="1.0" y="0.0" text-anchor="middle">
                    <tspan>WW1</tspan>
                  </text>
                </g>
              </g>
            </g>
            <g>
              <line x1="167.36232538743405" y1="148.0" x2="167.36232538743405" y2="0.0" stroke="rgb(128,128,128)" stroke-opacity="0.5" fill="none" stroke-width="2.2" stroke-dasharray="8.8,8.8">
              </line>
            </g>
            <g>
              <g transform="rotate(0.0 167.36232538743405 6.7272727272727195 ) ">
                <g transform="translate(167.36232538743405 10.327272727272721 ) ">
                  <text style="fill:#000000;font-size:12.0px;font-family:sans-serif;" fill-opacity="1.0" y="0.0" text-anchor="middle">
                    <tspan>WW2</tspan>
                  </text>
                </g>
              </g>
            </g>
            <g>
              <line x1="218.78703369547696" y1="148.0" x2="218.78703369547696" y2="0.0" stroke="rgb(128,128,128)" stroke-opacity="0.5" fill="none" stroke-width="2.2" stroke-dasharray="8.8,8.8">
              </line>
            </g>
            <g>
              <g transform="rotate(0.0 218.78703369547696 6.7272727272727195 ) ">
                <g transform="translate(218.78703369547696 10.327272727272721 ) ">
                  <text style="fill:#000000;font-size:12.0px;font-family:sans-serif;" fill-opacity="1.0" y="0.0" text-anchor="middle">
                    <tspan>Viet.</tspan>
                  </text>
                </g>
              </g>
            </g>
            <g>
              <line x1="247.86035985677407" y1="148.0" x2="247.86035985677407" y2="0.0" stroke="rgb(128,128,128)" stroke-opacity="0.5" fill="none" stroke-width="2.2" stroke-dasharray="8.8,8.8">
              </line>
            </g>
            <g>
              <g transform="rotate(0.0 247.86035985677407 6.7272727272727195 ) ">
                <g transform="translate(247.86035985677407 10.327272727272721 ) ">
                  <text style="fill:#000000;font-size:12.0px;font-family:sans-serif;" fill-opacity="1.0" y="0.0" text-anchor="middle">
                    <tspan>TV</tspan>
                  </text>
                </g>
              </g>
            </g>
          </g>
        </g>
        <defs>
          <clipPath id="cN9qcN7">
            <rect x="27.034701220281416" y="0.0" width="336.9652987797186" height="148.0">
            </rect>
          </clipPath>
        </defs>
        <defs>
          <clipPath id="ci4rvwE">
            <rect x="27.034701220281416" y="0.0" width="336.9652987797186" height="148.0">
            </rect>
          </clipPath>
        </defs>
        <defs>
          <clipPath id="cF4i5UM">
            <rect x="27.034701220281416" y="0.0" width="336.9652987797186" height="148.0">
            </rect>
          </clipPath>
        </defs>
        <defs>
          <clipPath id="ccWEb2f">
            <rect x="27.034701220281416" y="0.0" width="336.9652987797186" height="148.0">
            </rect>
          </clipPath>
        </defs>
        <defs>
          <clipPath id="ceXZJkw">
            <rect x="27.034701220281416" y="0.0" width="336.9652987797186" height="148.0">
            </rect>
          </clipPath>
        </defs>
        <defs>
          <clipPath id="cQDxoBx">
            <rect x="27.034701220281416" y="0.0" width="336.9652987797186" height="148.0">
            </rect>
          </clipPath>
        </defs>
        <defs>
          <clipPath id="ccLlpKQ">
            <rect x="27.034701220281416" y="0.0" width="336.9652987797186" height="148.0">
            </rect>
          </clipPath>
        </defs>
        <defs>
          <clipPath id="cAIDhfm">
            <rect x="27.034701220281416" y="0.0" width="336.9652987797186" height="148.0">
            </rect>
          </clipPath>
        </defs>
        <defs>
          <clipPath id="cTbv5OU">
            <rect x="27.034701220281416" y="0.0" width="336.9652987797186" height="148.0">
            </rect>
          </clipPath>
        </defs>
      </g>
      <g>
        <g transform="translate(27.034701220281416 148.0 ) ">
          <g transform="translate(75.685538850179 0.0 ) ">
            <line stroke-width="1.0" stroke="rgb(71,71,71)" stroke-opacity="1.0" x2="0.0" y2="4.0">
            </line>
            <g transform="translate(0.0 7.0 ) ">
              <text class="axis-text-x" text-anchor="middle" dy="0.7em">
                <tspan>1900</tspan>
              </text>
            </g>
          </g>
          <g transform="translate(187.48530350749797 0.0 ) ">
            <line stroke-width="1.0" stroke="rgb(71,71,71)" stroke-opacity="1.0" x2="0.0" y2="4.0">
            </line>
            <g transform="translate(0.0 7.0 ) ">
              <text class="axis-text-x" text-anchor="middle" dy="0.7em">
                <tspan>1950</tspan>
              </text>
            </g>
          </g>
          <g transform="translate(299.285068164817 0.0 ) ">
            <line stroke-width="1.0" stroke="rgb(71,71,71)" stroke-opacity="1.0" x2="0.0" y2="4.0">
            </line>
            <g transform="translate(0.0 7.0 ) ">
              <text class="axis-text-x" text-anchor="middle" dy="0.7em">
                <tspan>2000</tspan>
              </text>
            </g>
          </g>
          <line x1="0.0" y1="0.0" x2="336.9652987797186" y2="0.0" stroke-width="1.0" stroke="rgb(71,71,71)" stroke-opacity="1.0">
          </line>
        </g>
        <g transform="translate(27.034701220281416 0.0 ) ">
          <g transform="translate(0.0 129.01167649664757 ) ">
            <g transform="translate(-3.0 0.0 ) ">
              <text class="axis-text-y" text-anchor="end" dy="0.35em">
                <tspan>0.4</tspan>
              </text>
            </g>
          </g>
          <g transform="translate(0.0 91.38570610607067 ) ">
            <g transform="translate(-3.0 0.0 ) ">
              <text class="axis-text-y" text-anchor="end" dy="0.35em">
                <tspan>0.6</tspan>
              </text>
            </g>
          </g>
          <g transform="translate(0.0 53.759735715493804 ) ">
            <g transform="translate(-3.0 0.0 ) ">
              <text class="axis-text-y" text-anchor="end" dy="0.35em">
                <tspan>0.8</tspan>
              </text>
            </g>
          </g>
          <g transform="translate(0.0 16.133765324916936 ) ">
            <g transform="translate(-3.0 0.0 ) ">
              <text class="axis-text-y" text-anchor="end" dy="0.35em">
                <tspan>1.0</tspan>
              </text>
            </g>
          </g>
        </g>
      </g>
    </g>
    <g transform="translate(16.0 123.5 ) rotate(-90.0 ) ">
      <text class="axis-title-y" y="0.0" text-anchor="middle">
        <tspan>Mean emotional score</tspan>
      </text>
    </g>
    <g transform="translate(225.0173506101407 243.0 ) ">
      <text class="axis-title-x" y="0.0" text-anchor="middle">
        <tspan>Year</tspan>
      </text>
    </g>
    <g transform="translate(145.67448773325825 0.0 ) ">
      <rect x="5.0" y="5.0" height="33.0" width="148.68572575376493" stroke="rgb(71,71,71)" stroke-opacity="1.0" stroke-width="0.0" fill="rgb(255,255,255)" fill-opacity="1.0">
      </rect>
      <g transform="translate(10.0 10.0 ) ">
        <g transform="translate(0.0 16.0 ) ">
          <text class="legend-title" y="0.0">
            <tspan>chamber</tspan>
          </text>
        </g>
        <g transform="translate(65.00999661222119 0.0 ) ">
          <g transform="">
            <g>
              <rect x="0.0" y="0.0" height="23.0" width="23.0" stroke-width="0.0" fill="rgb(255,255,255)" fill-opacity="1.0">
              </rect>
              <g transform="translate(1.0 1.0 ) ">
                <g>
                  <line x1="0.0" y1="10.5" x2="21.0" y2="10.5" stroke="rgb(228,26,28)" stroke-opacity="1.0" fill="rgb(255,255,255)" fill-opacity="1.0" stroke-width="1.6500000000000001">
                  </line>
                </g>
              </g>
              <rect x="0.0" y="0.0" height="23.0" width="23.0" stroke="rgb(255,255,255)" stroke-opacity="1.0" stroke-width="1.0" fill-opacity="0.0">
              </rect>
            </g>
            <g transform="translate(26.9903027277341 16.05 ) ">
              <text class="legend-item" y="0.0">
                <tspan>H</tspan>
              </text>
            </g>
          </g>
          <g transform="translate(36.83786457077187 0.0 ) ">
            <g>
              <rect x="0.0" y="0.0" height="23.0" width="23.0" stroke-width="0.0" fill="rgb(255,255,255)" fill-opacity="1.0">
              </rect>
              <g transform="translate(1.0 1.0 ) ">
                <g>
                  <line x1="0.0" y1="10.5" x2="21.0" y2="10.5" stroke="rgb(55,126,184)" stroke-opacity="1.0" fill="rgb(255,255,255)" fill-opacity="1.0" stroke-width="1.6500000000000001">
                  </line>
                </g>
              </g>
              <rect x="0.0" y="0.0" height="23.0" width="23.0" stroke="rgb(255,255,255)" stroke-opacity="1.0" stroke-width="1.0" fill-opacity="0.0">
              </rect>
            </g>
            <g transform="translate(26.9903027277341 16.05 ) ">
              <text class="legend-item" y="0.0">
                <tspan>S</tspan>
              </text>
            </g>
          </g>
        </g>
      </g>
    </g>
    <path fill="rgb(0,0,0)" fill-opacity="0.0" stroke="rgb(71,71,71)" stroke-opacity="1.0" stroke-width="0.0" d="M0.0 0.0 L0.0 250.0 L400.0 250.0 L400.0 0.0 Z">
    </path>
  </g>
  <g id="dqfNAkj">
  </g>
</svg>