<svg xmlns="http://www.w3.org/2000/svg" xmlns:xlink="http://www.w3.org/1999/xlink" display="block" class="plt-container" width="400.0" height="250.0">
  <style type="text/css">
  .plt-container {
   font-family: Lucida Grande, sans-serif;
   user-select: none;
   -webkit-user-select: none;
   -moz-user-select: none;
   -ms-user-select: none;
}
text {
   text-rendering: optimizeLegibility;
}
#p4HlWhc .plot-title {
   fill: #474747;
   font-family: Lucida Grande, sans-serif;
   font-size: 16.0px;
   font-weight: normal;
   font-style: normal;   
}
#p4HlWhc .plot-subtitle {
   fill: #474747;
   font-family: Lucida Grande, sans-serif;
   font-size: 15.0px;
   font-weight: normal;
   font-style: normal;   
}
#p4HlWhc .plot-caption {
   fill: #474747;
   font-family: Lucida Grande, sans-serif;
   font-size: 13.0px;
   font-weight: normal;
   font-style: normal;   
}
#p4HlWhc .legend-title {
   fill: #474747;
   font-family: Lucida Grande, sans-serif;
   font-size: 15.0px;
   font-weight: normal;
   font-style: normal;   
}
#p4HlWhc .legend-item {
   fill: #474747;
   font-family: Lucida Grande, sans-serif;
   font-size: 13.0px;
   font-weight: normal;
   font-style: normal;   
}
#p4HlWhc .axis-title-x {
   fill: #474747;
   font-family: Lucida Grande, sans-serif;
   font-size: 15.0px;
   font-weight: normal;
   font-style: normal;   
}
#p4HlWhc .axis-text-x {
   fill: #474747;
   font-family: Lucida Grande, sans-serif;
   font-size: 13.0px;
   font-weight: normal;
   font-style: normal;   
}
#dFvNWF8 .axis-tooltip-text-x {
   fill: #ffffff;
   font-family: Lucida Grande, sans-serif;
   font-size: 13.0px;
   font-weight: normal;
   font-style: normal;   
}
#p4HlWhc .axis-title-y {
   fill: #474747;
   font-family: Lucida Grande, sans-serif;
   font-size: 15.0px;
   font-weight: normal;
   font-style: normal;   
}
#p4HlWhc .axis-text-y {
   fill: #474747;
   font-family: Lucida Grande, sans-serif;
   font-size: 13.0px;
   font-weight: normal;
   font-style: normal;   
}
#dFvNWF8 .axis-tooltip-text-y {
   fill: #ffffff;
   font-family: Lucida Grande, sans-serif;
   font-size: 13.0px;
   font-weight: normal;
   font-style: normal;   
}
#p4HlWhc .facet-strip-text-x {
   fill: #474747;
   font-family: Lucida Grande, sans-serif;
   font-size: 13.0px;
   font-weight: normal;
   font-style: normal;   
}
#p4HlWhc .facet-strip-text-y {
   fill: #474747;
   font-family: Lucida Grande, sans-serif;
   font-size: 13.0px;
   font-weight: normal;
   font-style: normal;   
}
#dFvNWF8 .tooltip-text {
   fill: #474747;
   font-family: Lucida Grande, sans-serif;
   font-size: 13.0px;
   font-weight: normal;
   font-style: normal;   
}
#dFvNWF8 .tooltip-title {
   fill: #474747;
   font-family: Lucida Grande, sans-serif;
   font-size: 13.0px;
   font-weight: bold;
   font-style: normal;   
}
#dFvNWF8 .tooltip-label {
   fill: #474747;
   font-family: Lucida Grande, sans-serif;
   font-size: 13.0px;
   font-weight: bold;
   font-style: normal;   
}

  </style>
  <g id="p4HlWhc">
    <path fill-rule="evenodd" fill="rgb(255,255,255)" fill-opacity="1.0" d="M0.0 0.0 L0.0 250.0 L400.0 250.0 L400.0 0.0 Z">
    </path>
    <g transform="translate(29.5 49.5 ) ">
      <g>
        <g transform="translate(35.796181731634725 0.0 ) ">
          <g>
            <line x1="73.71762887242014" y1="0.0" x2="73.71762887242014" y2="148.0" stroke="rgb(233,233,233)" stroke-opacity="1.0" stroke-width="1.0" fill="none">
            </line>
            <line x1="182.6104726605391" y1="0.0" x2="182.6104726605391" y2="148.0" stroke="rgb(233,233,233)" stroke-opacity="1.0" stroke-width="1.0" fill="none">
            </line>
            <line x1="291.5033164486581" y1="0.0" x2="291.5033164486581" y2="148.0" stroke="rgb(233,233,233)" stroke-opacity="1.0" stroke-width="1.0" fill="none">
            </line>
          </g>
        </g>
        <g transform="translate(35.796181731634725 0.0 ) ">
          <g>
            <line x1="0.0" y1="118.67292138466514" x2="328.2038182683653" y2="118.67292138466514" stroke="rgb(233,233,233)" stroke-opacity="1.0" stroke-width="1.0" fill="none">
            </line>
            <line x1="0.0" y1="86.68845033969589" x2="328.2038182683653" y2="86.68845033969589" stroke="rgb(233,233,233)" stroke-opacity="1.0" stroke-width="1.0" fill="none">
            </line>
            <line x1="0.0" y1="54.70397929472662" x2="328.2038182683653" y2="54.70397929472662" stroke="rgb(233,233,233)" stroke-opacity="1.0" stroke-width="1.0" fill="none">
            </line>
            <line x1="0.0" y1="22.719508249757382" x2="328.2038182683653" y2="22.719508249757382" stroke="rgb(233,233,233)" stroke-opacity="1.0" stroke-width="1.0" fill="none">
            </line>
          </g>
        </g>
      </g>
      <g clip-path="url(#cgwlhL9)" clip-bounds-jfx="[rect (35.796181731634725, 0.0), (328.2038182683653, 148.0)]">
        <g transform="translate(35.796181731634725 0.0 ) ">
          <g>
            <g>
              <g>
                <path d="M14.918355375834807 86.68845033969589 L14.918355375834807 86.68845033969589 L17.09478117709773 117.82206483933345 L19.271206978360624 111.52111419448568 L21.447632779623547 112.07295116903657 L23.630021391300886 116.30370130726004 L25.80644719256381 118.38903554698791 L27.98287299382673 118.42641293730509 L30.159298795089654 126.10908692173084 L32.341687406766994 130.94369329499926 L34.51811320802992 116.01258730909115 L36.69453900929284 119.76241674872736 L38.87096481055573 107.2132445931521 L41.05335342223307 124.31723980436561 L43.229779223495996 110.02110493586622 L45.40620502475892 120.7702637482697 L47.58263082602184 115.42026331229542 L49.76501943769918 120.38856350968267 L51.9414452389621 103.45235779255 L54.117871040225026 110.23031989056159 L56.29429684148795 122.666676649699 L58.47668545316529 131.213784825691 L60.65311125442818 106.73130467550047 L62.829537055691105 116.00754879758438 L65.00596285695403 112.18904839161823 L67.18835146863137 114.8739995364121 L69.36477726989429 99.93532010021738 L71.54120307115721 94.72923914988368 L73.71762887242014 96.06806061681297 L75.89405467368306 124.13862213285611 L78.07048047494595 105.569752592416 L80.24690627620888 94.24841622305226 L82.4233320774718 118.0913855474839 L84.60572068914914 115.63582027653752 L86.78214649041206 104.99769668256076 L88.95857229167498 120.81070094037004 L91.1349980929379 102.69952241756627 L93.31738670461525 111.98335881316831 L95.49381250587817 109.13144325416911 L97.67023830714106 106.57929054179121 L99.846664108404 108.26762211680085 L102.02905272008132 106.21143915935247 L104.20547852134425 94.06239179098563 L106.38190432260717 103.17529108452541 L108.55833012387009 91.28098766268127 L110.74071873554743 91.6366733124199 L112.91714453681034 103.28416644793467 L115.09357033807326 88.34281953167707 L117.26999613933619 96.68359754124879 L119.45238475101353 99.33950886661071 L121.62881055227643 93.56264727961224 L123.80523635353936 105.28407304025941 L125.98166215480228 86.30432939039682 L128.16405076647962 91.13073798483052 L130.34047656774254 95.74065912600796 L132.51690236900544 89.18167191335718 L134.6933281702684 104.9808148671132 L136.8757167819457 93.81874643252343 L139.05214258320865 100.27477432339964 L141.22856838447154 102.77172325604667 L143.40499418573447 94.35246097347445 L145.5873827974118 82.64546944918013 L147.76380859867473 82.27282708618873 L149.94023439993765 85.06322315245151 L152.11666020120055 83.05385135731302 L154.2990488128779 80.32790212052586 L156.4754746141408 81.17388636642531 L158.65190041540376 74.35963440826501 L160.82832621666665 76.3533321448929 L163.010714828344 77.95446107129564 L165.18714062960692 72.5826528012663 L167.36356643086984 70.41250569029509 L169.53999223213276 87.69636434321382 L171.7223808438101 80.46644493136853 L173.89880664507302 80.26217888978817 L176.07523244633592 64.98620714054022 L178.25165824759884 74.7539462184387 L180.43404685927618 82.15456913486778 L182.6104726605391 83.22823004790709 L184.78689846180202 66.38870865480828 L186.96332426306495 72.66017356558655 L189.1457128747423 75.72873648512598 L191.3221386760052 85.00505712680277 L193.49856447726813 92.57516280196018 L195.67499027853103 87.54136956756173 L197.8573788902084 74.60542794492972 L200.0338046914713 86.51251815573016 L202.2102304927342 92.61150053320873 L204.38665629399713 81.14658654477546 L206.56904490567447 84.46215305118295 L208.7454707069374 69.16487538415993 L210.92189650820032 68.64682647533755 L213.09832230946324 68.4859058425589 L215.28071092114058 73.96735390135584 L217.45713672240348 70.82546874134596 L219.6335625236664 64.19058090595433 L221.80998832492932 60.72964919722713 L223.99237693660666 67.4977677127143 L226.16880273786958 70.93194210575061 L228.3452285391325 64.10960486517706 L230.52165434039543 73.50187017203311 L232.70404295207277 73.31954682720874 L234.8804687533357 82.29751862109461 L237.05689455459859 84.76938207699774 L239.2333203558615 84.4945696543009 L241.41570896753885 70.52175406605687 L243.59213476880177 73.88236808274152 L245.7685605700647 73.23900128005047 L247.94498637132762 71.24016840641141 L250.12737498300496 65.404883655428 L252.30380078426788 53.957260126361604 L254.48022658553077 58.75020755945167 L256.6566523867937 53.11558569881393 L258.83904099847103 46.06206641326651 L261.015466799734 45.21682483039055 L263.1918926009969 55.785579764846375 L265.3683184022598 59.25944056692887 L267.55070701393714 30.909420224391226 L269.72713281520004 49.50618110399148 L271.903558616463 44.57416431810469 L274.0799844177259 31.149287963797804 L276.26237302940325 34.31213312631829 L278.43879883066614 45.44863038998159 L280.6152246319291 28.200223237002746 L282.791650433192 30.944086518463763 L284.9740390448693 29.5843177233167 L287.15046484613225 23.397624243643662 L289.32689064739515 26.557644775153705 L291.5033164486581 29.58462221292089 L293.6857050603354 29.523222485200392 L295.86213086159836 25.107806966145972 L298.03855666286125 31.92052046817318 L300.2149824641242 29.80331727313981 L302.3973710758015 23.00007378523958 L304.5737968770644 26.737986225785193 L306.75022267832736 23.561204856203943 L308.9266484795903 25.35981463695964 L311.1090370912676 19.30115429872933 L313.2854628925305 23.264255931788455 " fill="none" stroke-width="1.6500000000000001" stroke="rgb(228,26,28)" stroke-opacity="1.0">
                </path>
              </g>
              <g>
                <path d="M14.918355375834807 61.43755214629908 L14.918355375834807 61.43755214629908 L17.09478117709773 92.87592241684769 L19.271206978360624 112.31703290778023 L21.447632779623547 107.3442006150755 L23.630021391300886 123.66471744370659 L25.80644719256381 126.61134709856806 L27.98287299382673 120.61137417526936 L30.159298795089654 118.38259335702551 L32.341687406766994 116.92433982412015 L34.51811320802992 119.46347473696099 L36.69453900929284 114.224749914835 L38.87096481055573 134.01470132488885 L41.05335342223307 141.27272727272725 L43.229779223495996 126.11861802341896 L45.40620502475892 124.18748535793571 L47.58263082602184 126.44005524667372 L49.76501943769918 132.9118553382395 L51.9414452389621 133.07402386191103 L54.117871040225026 123.53132204972377 L56.29429684148795 125.21759862819022 L58.47668545316529 126.41109986328675 L60.65311125442818 115.30200899512184 L62.829537055691105 132.44527152300887 L65.00596285695403 130.0451777562098 L67.18835146863137 125.89919468879171 L69.36477726989429 130.20655368134857 L71.54120307115721 134.29892250587153 L73.71762887242014 117.65754135149152 L75.89405467368306 123.91905155606223 L78.07048047494595 129.63300371967932 L80.24690627620888 115.76524219875884 L82.4233320774718 130.70668276792094 L84.60572068914914 129.39498838269463 L86.78214649041206 124.36246671477988 L88.95857229167498 105.67923002264641 L91.1349980929379 120.7702637482697 L93.31738670461525 126.87983311149381 L95.49381250587817 135.76515194308786 L97.67023830714106 116.93017777003541 L99.846664108404 124.66150319734024 L102.02905272008132 137.1428271993657 L104.20547852134425 110.30114708430406 L106.38190432260717 116.08831766385956 L108.55833012387009 113.02976363089513 L110.74071873554743 112.39025742940333 L112.91714453681034 103.64818765535574 L115.09357033807326 101.1184316836231 L117.26999613933619 116.41139312896024 L119.45238475101353 110.30243556497334 L121.62881055227643 114.91004243819819 L123.80523635353936 127.28412512754149 L125.98166215480228 108.51715516709507 L128.16405076647962 131.94949427125619 L130.34047656774254 103.45154342753364 L132.51690236900544 106.59579746312073 L134.6933281702684 101.37688131493977 L136.8757167819457 120.33900760770673 L139.05214258320865 109.31161278613757 L141.22856838447154 89.21686702309268 L143.40499418573447 114.72750499796763 L145.5873827974118 117.71368701405689 L147.76380859867473 118.82780986430181 L149.94023439993765 117.23541706803732 L152.11666020120055 137.08822289540504 L154.2990488128779 123.42309035173979 L156.4754746141408 111.40372341989942 L158.65190041540376 115.94820361897561 L160.82832621666665 107.06674201813621 L163.010714828344 111.27675833859601 L165.18714062960692 123.64601272925037 L167.36356643086984 122.91799992152608 L169.53999223213276 114.65201645329759 L171.7223808438101 109.22419818971667 L173.89880664507302 111.0781531635624 L176.07523244633592 117.2286555237446 L178.25165824759884 125.06247128343054 L180.43404685927618 128.47811556247814 L182.6104726605391 119.56736024350946 L184.78689846180202 114.06969726404921 L186.96332426306495 114.5619669757694 L189.1457128747423 114.2430853289728 L191.3221386760052 108.29957942413458 L193.49856447726813 115.28383836003266 L195.67499027853103 116.82237341177404 L197.8573788902084 116.77954889151687 L200.0338046914713 115.28383836003266 L202.2102304927342 113.59994918797756 L204.38665629399713 96.21418054781961 L206.56904490567447 107.86354151070327 L208.7454707069374 107.1401551563481 L210.92189650820032 95.8626141335593 L213.09832230946324 87.78255995354888 L215.28071092114058 93.69457256859394 L217.45713672240348 94.79181856271344 L219.6335625236664 97.05378817834332 L221.80998832492932 93.71800441551329 L223.99237693660666 97.06234749943224 L226.16880273786958 81.00131110694886 L228.3452285391325 96.48345914027541 L230.52165434039543 93.34293760408548 L232.70404295207277 98.58964886805654 L234.8804687533357 100.04805741007618 L237.05689455459859 92.86861547014257 L239.2333203558615 103.39343173504892 L241.41570896753885 112.02926271063592 L243.59213476880177 97.05633682300493 L245.7685605700647 99.10156976206432 L247.94498637132762 93.07551829030419 L250.12737498300496 91.56569712825461 L252.30380078426788 96.9610203422435 L254.48022658553077 94.76270605951711 L256.6566523867937 102.49826492466167 L258.83904099847103 81.72191756873795 L261.015466799734 90.83910688751632 L263.1918926009969 98.77355862154414 L265.3683184022598 81.16459476748133 L267.55070701393714 81.96749520390705 L269.72713281520004 87.54365010025657 L271.903558616463 76.95686685745372 L274.0799844177259 80.81245516261615 L276.26237302940325 77.78792428588937 L278.43879883066614 84.04510562523564 L280.6152246319291 73.5844446440145 L282.791650433192 71.1018923538297 L284.9740390448693 78.62513831155238 L287.15046484613225 76.02695999137279 L289.32689064739515 72.36962026023284 L291.5033164486581 76.61653549450588 L293.6857050603354 75.86037420468026 L295.86213086159836 74.4223362631158 L298.03855666286125 70.43404702176068 L300.2149824641242 66.4556393667084 L302.3973710758015 74.49495697944369 L304.5737968770644 71.60143569584247 L306.75022267832736 67.22699970386805 L308.9266484795903 63.03129719992572 L311.1090370912676 68.76611742656658 L313.2854628925305 66.50407540840462 " fill="none" stroke-width="1.6500000000000001" stroke="rgb(55,126,184)" stroke-opacity="1.0">
                </path>
              </g>
            </g>
            <g>
              <line x1="110.74071873554743" y1="148.0" x2="110.74071873554743" y2="0.0" stroke="rgb(128,128,128)" stroke-opacity="0.5" fill="none" stroke-width="2.2" stroke-dasharray="8.8,8.8">
              </line>
            </g>
            <g>
              <g transform="rotate(0.0 110.74071873554743 6.727272727272748 ) ">
                <g transform="translate(110.74071873554743 10.32727272727275 ) ">
                  <text style="fill:#000000;font-size:12.0px;font-family:sans-serif;" fill-opacity="1.0" y="0.0" text-anchor="middle">
                    <tspan>WW1</tspan>
                  </text>
                </g>
              </g>
            </g>
            <g>
              <line x1="163.010714828344" y1="148.0" x2="163.010714828344" y2="0.0" stroke="rgb(128,128,128)" stroke-opacity="0.5" fill="none" stroke-width="2.2" stroke-dasharray="8.8,8.8">
              </line>
            </g>
            <g>
              <g transform="rotate(0.0 163.010714828344 6.727272727272748 ) ">
                <g transform="translate(163.010714828344 10.32727272727275 ) ">
                  <text style="fill:#000000;font-size:12.0px;font-family:sans-serif;" fill-opacity="1.0" y="0.0" text-anchor="middle">
                    <tspan>WW2</tspan>
                  </text>
                </g>
              </g>
            </g>
            <g>
              <line x1="213.09832230946324" y1="148.0" x2="213.09832230946324" y2="0.0" stroke="rgb(128,128,128)" stroke-opacity="0.5" fill="none" stroke-width="2.2" stroke-dasharray="8.8,8.8">
              </line>
            </g>
            <g>
              <g transform="rotate(0.0 213.09832230946324 6.727272727272748 ) ">
                <g transform="translate(213.09832230946324 10.32727272727275 ) ">
                  <text style="fill:#000000;font-size:12.0px;font-family:sans-serif;" fill-opacity="1.0" y="0.0" text-anchor="middle">
                    <tspan>Viet.</tspan>
                  </text>
                </g>
              </g>
            </g>
            <g>
              <line x1="241.41570896753885" y1="148.0" x2="241.41570896753885" y2="0.0" stroke="rgb(128,128,128)" stroke-opacity="0.5" fill="none" stroke-width="2.2" stroke-dasharray="8.8,8.8">
              </line>
            </g>
            <g>
              <g transform="rotate(0.0 241.41570896753885 6.727272727272748 ) ">
                <g transform="translate(241.41570896753885 10.32727272727275 ) ">
                  <text style="fill:#000000;font-size:12.0px;font-family:sans-serif;" fill-opacity="1.0" y="0.0" text-anchor="middle">
                    <tspan>TV</tspan>
                  </text>
                </g>
              </g>
            </g>
          </g>
        </g>
        <defs>
          <clipPath id="c7jRpAY">
            <rect x="35.796181731634725" y="0.0" width="328.2038182683653" height="148.0">
            </rect>
          </clipPath>
        </defs>
        <defs>
          <clipPath id="ccdUCXu">
            <rect x="35.796181731634725" y="0.0" width="328.2038182683653" height="148.0">
            </rect>
          </clipPath>
        </defs>
        <defs>
          <clipPath id="cwqcWHc">
            <rect x="35.796181731634725" y="0.0" width="328.2038182683653" height="148.0">
            </rect>
          </clipPath>
        </defs>
        <defs>
          <clipPath id="cGPI9Au">
            <rect x="35.796181731634725" y="0.0" width="328.2038182683653" height="148.0">
            </rect>
          </clipPath>
        </defs>
        <defs>
          <clipPath id="coZJlao">
            <rect x="35.796181731634725" y="0.0" width="328.2038182683653" height="148.0">
            </rect>
          </clipPath>
        </defs>
        <defs>
          <clipPath id="cfxZkqE">
            <rect x="35.796181731634725" y="0.0" width="328.2038182683653" height="148.0">
            </rect>
          </clipPath>
        </defs>
        <defs>
          <clipPath id="cJW2XAQ">
            <rect x="35.796181731634725" y="0.0" width="328.2038182683653" height="148.0">
            </rect>
          </clipPath>
        </defs>
        <defs>
          <clipPath id="csAkebl">
            <rect x="35.796181731634725" y="0.0" width="328.2038182683653" height="148.0">
            </rect>
          </clipPath>
        </defs>
        <defs>
          <clipPath id="cgwlhL9">
            <rect x="35.796181731634725" y="0.0" width="328.2038182683653" height="148.0">
            </rect>
          </clipPath>
        </defs>
      </g>
      <g>
        <g transform="translate(35.796181731634725 148.0 ) ">
          <g transform="translate(73.71762887242014 0.0 ) ">
            <line stroke-width="1.0" stroke="rgb(71,71,71)" stroke-opacity="1.0" x2="0.0" y2="4.0">
            </line>
            <g transform="translate(0.0 7.0 ) ">
              <text class="axis-text-x" text-anchor="middle" dy="0.7em">
                <tspan>1900</tspan>
              </text>
            </g>
          </g>
          <g transform="translate(182.6104726605391 0.0 ) ">
            <line stroke-width="1.0" stroke="rgb(71,71,71)" stroke-opacity="1.0" x2="0.0" y2="4.0">
            </line>
            <g transform="translate(0.0 7.0 ) ">
              <text class="axis-text-x" text-anchor="middle" dy="0.7em">
                <tspan>1950</tspan>
              </text>
            </g>
          </g>
          <g transform="translate(291.5033164486581 0.0 ) ">
            <line stroke-width="1.0" stroke="rgb(71,71,71)" stroke-opacity="1.0" x2="0.0" y2="4.0">
            </line>
            <g transform="translate(0.0 7.0 ) ">
              <text class="axis-text-x" text-anchor="middle" dy="0.7em">
                <tspan>2000</tspan>
              </text>
            </g>
          </g>
          <line x1="0.0" y1="0.0" x2="328.2038182683653" y2="0.0" stroke-width="1.0" stroke="rgb(71,71,71)" stroke-opacity="1.0">
          </line>
        </g>
        <g transform="translate(35.796181731634725 0.0 ) ">
          <g transform="translate(0.0 118.67292138466514 ) ">
            <g transform="translate(-3.0 0.0 ) ">
              <text class="axis-text-y" text-anchor="end" dy="0.35em">
                <tspan>40%</tspan>
              </text>
            </g>
          </g>
          <g transform="translate(0.0 86.68845033969589 ) ">
            <g transform="translate(-3.0 0.0 ) ">
              <text class="axis-text-y" text-anchor="end" dy="0.35em">
                <tspan>50%</tspan>
              </text>
            </g>
          </g>
          <g transform="translate(0.0 54.70397929472662 ) ">
            <g transform="translate(-3.0 0.0 ) ">
              <text class="axis-text-y" text-anchor="end" dy="0.35em">
                <tspan>60%</tspan>
              </text>
            </g>
          </g>
          <g transform="translate(0.0 22.719508249757382 ) ">
            <g transform="translate(-3.0 0.0 ) ">
              <text class="axis-text-y" text-anchor="end" dy="0.35em">
                <tspan>70%</tspan>
              </text>
            </g>
          </g>
        </g>
      </g>
    </g>
    <g transform="translate(16.0 123.5 ) rotate(-90.0 ) ">
      <text class="axis-title-y" y="0.0" text-anchor="middle">
        <tspan>% of emotional speeches</tspan>
      </text>
    </g>
    <g transform="translate(229.39809086581738 243.0 ) ">
      <text class="axis-title-x" y="0.0" text-anchor="middle">
        <tspan>Year</tspan>
      </text>
    </g>
    <g transform="translate(150.05522798893492 0.0 ) ">
      <rect x="5.0" y="5.0" height="33.0" width="148.68572575376493" stroke="rgb(71,71,71)" stroke-opacity="1.0" stroke-width="0.0" fill="rgb(255,255,255)" fill-opacity="1.0">
      </rect>
      <g transform="translate(10.0 10.0 ) ">
        <g transform="translate(0.0 16.0 ) ">
          <text class="legend-title" y="0.0">
            <tspan>chamber</tspan>
          </text>
        </g>
        <g transform="translate(65.00999661222119 0.0 ) ">
          <g transform="">
            <g>
              <rect x="0.0" y="0.0" height="23.0" width="23.0" stroke-width="0.0" fill="rgb(255,255,255)" fill-opacity="1.0">
              </rect>
              <g transform="translate(1.0 1.0 ) ">
                <g>
                  <line x1="0.0" y1="10.5" x2="21.0" y2="10.5" stroke="rgb(228,26,28)" stroke-opacity="1.0" fill="rgb(255,255,255)" fill-opacity="1.0" stroke-width="1.6500000000000001">
                  </line>
                </g>
              </g>
              <rect x="0.0" y="0.0" height="23.0" width="23.0" stroke="rgb(255,255,255)" stroke-opacity="1.0" stroke-width="1.0" fill-opacity="0.0">
              </rect>
            </g>
            <g transform="translate(26.9903027277341 16.05 ) ">
              <text class="legend-item" y="0.0">
                <tspan>H</tspan>
              </text>
            </g>
          </g>
          <g transform="translate(36.83786457077187 0.0 ) ">
            <g>
              <rect x="0.0" y="0.0" height="23.0" width="23.0" stroke-width="0.0" fill="rgb(255,255,255)" fill-opacity="1.0">
              </rect>
              <g transform="translate(1.0 1.0 ) ">
                <g>
                  <line x1="0.0" y1="10.5" x2="21.0" y2="10.5" stroke="rgb(55,126,184)" stroke-opacity="1.0" fill="rgb(255,255,255)" fill-opacity="1.0" stroke-width="1.6500000000000001">
                  </line>
                </g>
              </g>
              <rect x="0.0" y="0.0" height="23.0" width="23.0" stroke="rgb(255,255,255)" stroke-opacity="1.0" stroke-width="1.0" fill-opacity="0.0">
              </rect>
            </g>
            <g transform="translate(26.9903027277341 16.05 ) ">
              <text class="legend-item" y="0.0">
                <tspan>S</tspan>
              </text>
            </g>
          </g>
        </g>
      </g>
    </g>
    <path fill="rgb(0,0,0)" fill-opacity="0.0" stroke="rgb(71,71,71)" stroke-opacity="1.0" stroke-width="0.0" d="M0.0 0.0 L0.0 250.0 L400.0 250.0 L400.0 0.0 Z">
    </path>
  </g>
  <g id="dFvNWF8">
  </g>
</svg>