<svg xmlns="http://www.w3.org/2000/svg" xmlns:xlink="http://www.w3.org/1999/xlink" display="block" class="plt-container" width="400.0" height="200.0">
  <style type="text/css">
  .plt-container {
   font-family: Lucida Grande, sans-serif;
   user-select: none;
   -webkit-user-select: none;
   -moz-user-select: none;
   -ms-user-select: none;
}
text {
   text-rendering: optimizeLegibility;
}
#p8fEt5w .plot-title {
   fill: #474747;
   font-family: Lucida Grande, sans-serif;
   font-size: 16.0px;
   font-weight: normal;
   font-style: normal;   
}
#p8fEt5w .plot-subtitle {
   fill: #474747;
   font-family: Lucida Grande, sans-serif;
   font-size: 15.0px;
   font-weight: normal;
   font-style: normal;   
}
#p8fEt5w .plot-caption {
   fill: #474747;
   font-family: Lucida Grande, sans-serif;
   font-size: 13.0px;
   font-weight: normal;
   font-style: normal;   
}
#p8fEt5w .legend-title {
   fill: #474747;
   font-family: Lucida Grande, sans-serif;
   font-size: 15.0px;
   font-weight: normal;
   font-style: normal;   
}
#p8fEt5w .legend-item {
   fill: #474747;
   font-family: Lucida Grande, sans-serif;
   font-size: 13.0px;
   font-weight: normal;
   font-style: normal;   
}
#p8fEt5w .axis-title-x {
   fill: #474747;
   font-family: Lucida Grande, sans-serif;
   font-size: 15.0px;
   font-weight: normal;
   font-style: normal;   
}
#p8fEt5w .axis-text-x {
   fill: #474747;
   font-family: Lucida Grande, sans-serif;
   font-size: 13.0px;
   font-weight: normal;
   font-style: normal;   
}
#dbG4D4l .axis-tooltip-text-x {
   fill: #ffffff;
   font-family: Lucida Grande, sans-serif;
   font-size: 13.0px;
   font-weight: normal;
   font-style: normal;   
}
#p8fEt5w .axis-title-y {
   fill: #474747;
   font-family: Lucida Grande, sans-serif;
   font-size: 15.0px;
   font-weight: normal;
   font-style: normal;   
}
#p8fEt5w .axis-text-y {
   fill: #474747;
   font-family: Lucida Grande, sans-serif;
   font-size: 13.0px;
   font-weight: normal;
   font-style: normal;   
}
#dbG4D4l .axis-tooltip-text-y {
   fill: #ffffff;
   font-family: Lucida Grande, sans-serif;
   font-size: 13.0px;
   font-weight: normal;
   font-style: normal;   
}
#p8fEt5w .facet-strip-text-x {
   fill: #474747;
   font-family: Lucida Grande, sans-serif;
   font-size: 13.0px;
   font-weight: normal;
   font-style: normal;   
}
#p8fEt5w .facet-strip-text-y {
   fill: #474747;
   font-family: Lucida Grande, sans-serif;
   font-size: 13.0px;
   font-weight: normal;
   font-style: normal;   
}
#dbG4D4l .tooltip-text {
   fill: #474747;
   font-family: Lucida Grande, sans-serif;
   font-size: 13.0px;
   font-weight: normal;
   font-style: normal;   
}
#dbG4D4l .tooltip-title {
   fill: #474747;
   font-family: Lucida Grande, sans-serif;
   font-size: 13.0px;
   font-weight: bold;
   font-style: normal;   
}
#dbG4D4l .tooltip-label {
   fill: #474747;
   font-family: Lucida Grande, sans-serif;
   font-size: 13.0px;
   font-weight: bold;
   font-style: normal;   
}

  </style>
  <g id="p8fEt5w">
    <path fill-rule="evenodd" fill="rgb(255,255,255)" fill-opacity="1.0" d="M0.0 0.0 L0.0 200.0 L400.0 200.0 L400.0 0.0 Z">
    </path>
    <g transform="translate(29.5 6.5 ) ">
      <g>
        <g transform="translate(50.97651758668602 0.0 ) ">
          <g>
            <line x1="70.30798430879003" y1="0.0" x2="70.30798430879003" y2="141.0" stroke="rgb(233,233,233)" stroke-opacity="1.0" stroke-width="1.0" fill="none">
            </line>
            <line x1="174.1642323935536" y1="0.0" x2="174.1642323935536" y2="141.0" stroke="rgb(233,233,233)" stroke-opacity="1.0" stroke-width="1.0" fill="none">
            </line>
            <line x1="278.02048047831715" y1="0.0" x2="278.02048047831715" y2="141.0" stroke="rgb(233,233,233)" stroke-opacity="1.0" stroke-width="1.0" fill="none">
            </line>
          </g>
        </g>
        <g transform="translate(50.97651758668602 0.0 ) ">
          <g>
            <line x1="0.0" y1="139.18580005279208" x2="313.02348241331396" y2="139.18580005279208" stroke="rgb(233,233,233)" stroke-opacity="1.0" stroke-width="1.0" fill="none">
            </line>
            <line x1="0.0" y1="99.59173747732467" x2="313.02348241331396" y2="99.59173747732467" stroke="rgb(233,233,233)" stroke-opacity="1.0" stroke-width="1.0" fill="none">
            </line>
            <line x1="0.0" y1="59.99767490185725" x2="313.02348241331396" y2="59.99767490185725" stroke="rgb(233,233,233)" stroke-opacity="1.0" stroke-width="1.0" fill="none">
            </line>
            <line x1="0.0" y1="20.403612326389833" x2="313.02348241331396" y2="20.403612326389833" stroke="rgb(233,233,233)" stroke-opacity="1.0" stroke-width="1.0" fill="none">
            </line>
          </g>
        </g>
      </g>
      <g clip-path="url(#cNBO2TL)" clip-bounds-jfx="[rect (50.97651758668602, 0.0), (313.02348241331396, 141.0)]">
        <g transform="translate(50.97651758668602 0.0 ) ">
          <g>
            <g>
              <g>
                <path d="M14.228340109696092 134.5909090909091 L14.228340109696092 134.5909090909091 L16.30410018805216 89.33093616089229 L18.37986026640823 118.60084691980657 L20.455620344764327 89.80012580241157 L22.5370674370337 117.05073936997702 L24.612827515389768 95.0245623592445 L26.688587593745865 99.26706616420583 L28.764347672101934 94.17329001387195 L30.845794764371334 112.60234643962326 L32.9215548427274 72.38269767546346 L34.99731492108347 106.19800681804139 L37.07307499943957 90.75236300735156 L39.15452209170894 116.8666269790011 L41.23028217006501 81.21415333292146 L43.30604224842111 119.41846431198996 L45.381802326777176 71.24832778267631 L47.46324941904655 118.96115288924332 L49.539009497402645 56.49558006705716 L51.614769575758714 113.65752820725946 L53.69052965411478 87.32549689144486 L55.77197674638418 99.52244786781759 L57.84773682474025 72.83802939508134 L59.92349690309632 114.85326889703857 L61.99925698145242 89.69916094284413 L64.08070407372179 95.33933515671947 L66.15646415207786 91.23145116451471 L68.23222423043396 118.77110138888108 L70.30798430879003 94.09212218559225 L72.3837443871461 114.37022133361788 L74.45950446550219 93.76349146621587 L76.53526454385826 120.97253126807706 L78.61102462221433 103.60459571934828 L80.69247171448373 116.20342643086201 L82.7682317928398 79.63435023616032 L84.84399187119587 114.27915498969429 L86.91975194955197 91.73231605609439 L89.00119904182134 78.59302639042552 L91.07695912017742 72.37279915981959 L93.15271919853349 84.19756594798292 L95.22847927688957 44.13629343412501 L97.30992636915896 53.32013624850467 L99.38568644751504 10.469462026205065 L101.46144652587111 103.82434276664213 L103.5372066042272 30.08832003234916 L105.61865369649658 34.86138427582176 L107.69441377485265 35.067273401214194 L109.77017385320873 34.98808527606326 L111.84593393156482 68.62324143392283 L113.92738102383419 34.51097682202888 L116.00314110219027 32.085840489281495 L118.07890118054635 107.17993956991299 L120.15466125890242 64.12931533160727 L122.23610835117181 103.79068781345299 L124.31186842952789 57.534924209663174 L126.38762850788396 107.4175039453658 L128.46338858624006 78.30003032736707 L130.54483567850943 69.46659496678028 L132.6205957568655 60.55793088730012 L134.6963558352216 103.66596651634026 L136.77211591357766 52.7598802630618 L138.85356300584704 78.0367298112402 L140.92932308420313 80.83603003532575 L143.0050831625592 66.85536653992821 L145.08084324091527 94.23268110773515 L147.16229033318467 69.03897909096523 L149.23805041154074 85.49229179420072 L151.3138104898968 71.81848228376305 L153.3895705682529 61.031079935076946 L155.47101766052228 75.76996972879469 L157.54677773887835 75.31265830604804 L159.62253781723444 72.37279915981959 L161.6982978955905 78.12977585829256 L163.77974498785989 64.8558663798671 L165.85550506621598 72.10751894056396 L167.93126514457205 72.57076947269692 L170.00702522292812 86.43858988975438 L172.08847231519752 53.80318381192538 L174.1642323935536 39.30779750304676 L176.23999247190966 52.276832699641105 L178.31575255026576 82.8474084141595 L180.39719964253513 75.78580735382488 L182.4729597208912 38.078401860078486 L184.5487197992473 72.97858831722424 L186.62447987760336 57.895230179099926 L188.70592696987273 43.035578494527016 L190.78168704822883 40.36495897381174 L192.8574471265849 39.28998017488779 L194.93320720494097 39.084091049495356 L197.01465429721037 36.181846262713606 L199.09041437556644 32.78863509999604 L201.16617445392254 37.72403500002805 L203.2419345322786 32.11751573934187 L205.32338162454798 26.663433619571236 L207.39914170290407 32.36101922418099 L209.47490178126014 21.69437876635007 L211.5506618596162 37.36966813997762 L213.6321089518856 22.87032242484146 L215.70786903024168 6.409090909090878 L217.78362910859775 19.4098013557456 L219.85938918695385 33.27564206967429 L221.94083627922322 17.748830430704743 L224.0165963575793 19.970057341188465 L226.0923564359354 8.923313882633067 L228.16811651429146 31.94726127026736 L230.24956360656083 18.10517699388396 L232.32532368491692 18.18634482216366 L234.401083763273 23.852255176713044 L236.47684384162906 33.23208860084128 L238.55829093389846 48.19864425436796 L240.63405101225453 42.643597275029876 L242.70981109061063 38.559469720370416 L244.7855711689667 45.846756937385194 L246.86701826123607 36.79555423263335 L248.94277833959217 46.159550031731385 L251.01853841794824 38.59906378294589 L253.0942984963043 54.456485844420584 L255.1757455885737 57.47949252205753 L257.25150566692975 49.1469220530504 L259.32726574528584 48.81631163054526 L261.40302582364194 59.78188726082095 L263.4844729159113 54.11201750001402 L265.5602329942674 63.71357767456486 L267.6359930726235 25.41226124218646 L269.7117531509796 69.13598454427513 L271.7932002432489 68.22730080816815 L273.868960321605 66.0832823197066 L275.94472039996106 61.74377306143536 L278.02048047831715 71.98477734658 L280.10192757058655 72.33716450350167 L282.17768764894265 83.75609215026647 L284.2534477272987 61.6962601863448 L286.3292078056548 81.15674194218704 L288.41065489792413 66.15257192921366 L290.48641497628023 78.65043778115995 L292.5621750546363 48.90143886508251 L294.6379351329924 79.60465468922871 L296.71938222526177 55.82050130014544 L298.79514230361787 88.8162133474112 " fill="none" stroke-width="1.6500000000000001" stroke="rgb(71,71,71)" stroke-opacity="1.0">
                </path>
              </g>
            </g>
          </g>
        </g>
        <defs>
          <clipPath id="cNBO2TL">
            <rect x="50.97651758668602" y="0.0" width="313.02348241331396" height="141.0">
            </rect>
          </clipPath>
        </defs>
      </g>
      <g>
        <g transform="translate(50.97651758668602 141.0 ) ">
          <g transform="translate(70.30798430879003 0.0 ) ">
            <line stroke-width="1.0" stroke="rgb(71,71,71)" stroke-opacity="1.0" x2="0.0" y2="4.0">
            </line>
            <g transform="translate(0.0 7.0 ) ">
              <text class="axis-text-x" text-anchor="middle" dy="0.7em">
                <tspan>1900</tspan>
              </text>
            </g>
          </g>
          <g transform="translate(174.1642323935536 0.0 ) ">
            <line stroke-width="1.0" stroke="rgb(71,71,71)" stroke-opacity="1.0" x2="0.0" y2="4.0">
            </line>
            <g transform="translate(0.0 7.0 ) ">
              <text class="axis-text-x" text-anchor="middle" dy="0.7em">
                <tspan>1950</tspan>
              </text>
            </g>
          </g>
          <g transform="translate(278.02048047831715 0.0 ) ">
            <line stroke-width="1.0" stroke="rgb(71,71,71)" stroke-opacity="1.0" x2="0.0" y2="4.0">
            </line>
            <g transform="translate(0.0 7.0 ) ">
              <text class="axis-text-x" text-anchor="middle" dy="0.7em">
                <tspan>2000</tspan>
              </text>
            </g>
          </g>
          <line x1="0.0" y1="0.0" x2="313.02348241331396" y2="0.0" stroke-width="1.0" stroke="rgb(71,71,71)" stroke-opacity="1.0">
          </line>
        </g>
        <g transform="translate(50.97651758668602 0.0 ) ">
          <g transform="translate(0.0 139.18580005279208 ) ">
            <g transform="translate(-3.0 0.0 ) ">
              <text class="axis-text-y" text-anchor="end" dy="0.35em">
                <tspan>0</tspan>
              </text>
            </g>
          </g>
          <g transform="translate(0.0 99.59173747732467 ) ">
            <g transform="translate(-3.0 0.0 ) ">
              <text class="axis-text-y" text-anchor="end" dy="0.35em">
                <tspan>20,000</tspan>
              </text>
            </g>
          </g>
          <g transform="translate(0.0 59.99767490185725 ) ">
            <g transform="translate(-3.0 0.0 ) ">
              <text class="axis-text-y" text-anchor="end" dy="0.35em">
                <tspan>40,000</tspan>
              </text>
            </g>
          </g>
          <g transform="translate(0.0 20.403612326389833 ) ">
            <g transform="translate(-3.0 0.0 ) ">
              <text class="axis-text-y" text-anchor="end" dy="0.35em">
                <tspan>60,000</tspan>
              </text>
            </g>
          </g>
        </g>
      </g>
    </g>
    <g transform="translate(16.0 77.0 ) rotate(-90.0 ) ">
      <text class="axis-title-y" y="0.0" text-anchor="middle">
        <tspan># of speeches</tspan>
      </text>
    </g>
    <g transform="translate(236.988258793343 193.0 ) ">
      <text class="axis-title-x" y="0.0" text-anchor="middle">
        <tspan>Year</tspan>
      </text>
    </g>
    <path fill="rgb(0,0,0)" fill-opacity="0.0" stroke="rgb(71,71,71)" stroke-opacity="1.0" stroke-width="0.0" d="M0.0 0.0 L0.0 200.0 L400.0 200.0 L400.0 0.0 Z">
    </path>
  </g>
  <g id="dbG4D4l">
  </g>
</svg>